<?xml version="1.0" encoding="UTF-8"?>
<svg width="20px" height="20px" viewBox="0 0 20 20" version="1.1" xmlns="http://www.w3.org/2000/svg" xmlns:xlink="http://www.w3.org/1999/xlink">
    <!-- Generator: Sketch 52.4 (67378) - http://www.bohemiancoding.com/sketch -->
    <title>Artboard</title>
    <desc>Created with Sketch.</desc>
    <g id="Artboard" stroke="none" stroke-width="1" fill="none" fill-rule="evenodd">
        <g id="jieyue-copy-20" fill="#28C6C0">
            <path d="M18.8039592,0.0153639958 C18.7994839,0.1009282 18.7914922,0.186385848 18.7912791,0.271736941 C18.7907463,3.94641582 18.7907463,7.62109469 18.7907463,11.2957736 C18.7907463,11.3799525 18.7907463,11.4642381 18.7907463,11.5774002 C18.4110884,11.4513448 18.0592416,11.3344533 17.6893869,11.2115946 C17.6893869,7.89281165 17.6893869,4.57104516 17.6893869,1.23851655 C12.1749178,1.23851655 6.67898939,1.23851655 1.17048741,1.23851655 C1.17048741,6.69597836 1.17048741,12.1452354 1.17048741,17.6232624 C1.24688783,17.6232624 1.32318169,17.6232624 1.39968866,17.6232624 C3.75254443,17.6232624 6.10529365,17.6245411 8.45825598,17.6202789 C8.60178647,17.6200658 8.69448991,17.6660978 8.79923413,17.7653011 C9.10952425,18.0597145 9.43899438,18.3337757 9.77155463,18.6247792 C9.72392425,18.6288283 9.67075297,18.6371396 9.61768824,18.6371396 C6.47173861,18.6379921 3.32578897,18.6379921 0.179839334,18.63682 C0.121766493,18.63682 0.0635870968,18.6228612 0.00551425598,18.6155088 C0.00551425598,12.4187638 0.00551425598,6.22191217 0.00551425598,0.0153639958 C6.27173361,0.0154705515 12.5378464,0.0154705515 18.8039592,0.0153639958 Z" id="Path"></path>
            <path d="M14.0052246,19.0122156 C13.6090506,18.9202581 13.2044587,18.8545132 12.8181944,18.7316545 C11.1643438,18.2067613 9.91124912,17.1620895 8.95416608,15.6981211 C9.27798876,15.3785607 9.58657399,15.0447217 9.92520791,14.7448741 C10.9291754,13.8557736 12.0427888,13.1466456 13.3505465,12.7930939 C15.161247,12.3029378 16.7802539,12.7229802 18.2377224,13.863339 C18.8714089,14.3591426 19.4098348,14.9478626 19.901163,15.5816558 C19.9288674,15.6171388 19.9626456,15.6479334 19.9934402,15.6809657 C19.9934402,15.7073915 19.9934402,15.7337107 19.9934402,15.7602431 C19.9801207,15.7731363 19.9621128,15.7837919 19.9543342,15.799349 C19.1330031,17.4428637 17.7886968,18.4094302 16.0228562,18.8183908 C15.6337149,18.9086435 15.2331721,18.9489215 14.8378506,19.0122156 C14.560273,19.0122156 14.2826955,19.0122156 14.0052246,19.0122156 Z M16.4730539,15.7949802 C16.4686851,14.7005469 15.5744699,13.8168807 14.4728974,13.8181594 C13.3761199,13.8194381 12.4722081,14.7137598 12.4702901,15.7997752 C12.4683721,16.8959134 13.3739888,17.7866123 14.4874955,17.7833091 C15.5900271,17.7800058 16.4773161,16.891225 16.4730539,15.7949802 Z" id="Shape" fill-rule="nonzero"></path>
            <path d="M14.6026822,5.83884454 C11.6498114,5.83884454 8.71750593,5.83884454 5.7708154,5.83884454 C5.7708154,5.31789386 5.7708154,4.80131197 5.7708154,4.27524662 C8.71537482,4.27524662 11.6521557,4.27524662 14.6026822,4.27524662 C14.6026822,4.79768907 14.6026822,5.30947596 14.6026822,5.83884454 Z" id="Path"></path>
            <path d="M14.6047068,7.16610198 C14.6047068,7.67831509 14.6047068,8.18381519 14.6047068,8.70625765 C11.6568441,8.70625765 8.71548137,8.70625765 5.76527451,8.70625765 C5.76527451,8.19351176 5.76527451,7.6869461 5.76527451,7.16610198 C8.70983392,7.16610198 11.6514098,7.16610198 14.6047068,7.16610198 Z" id="Path"></path>
            <path d="M14.604174,10.0284004 C14.604174,10.5473265 14.604174,11.0589003 14.604174,11.5823018 C11.6573769,11.5823018 8.72016982,11.5823018 5.76974984,11.5823018 C5.76974984,11.0681707 5.76974984,10.555851 5.76974984,10.0284004 C8.70812903,10.0284004 11.6500246,10.0284004 14.604174,10.0284004 Z" id="Path"></path>
            <path d="M2.75923247,11.5454335 C2.75923247,11.0430235 2.75923247,10.557769 2.75923247,10.0615392 C3.26196212,10.0615392 3.75414277,10.0615392 4.26092154,10.0615392 C4.26092154,10.5535068 4.26092154,11.0440891 4.26092154,11.5454335 C3.76160166,11.5454335 3.26952758,11.5454335 2.75923247,11.5454335 Z" id="Path"></path>
            <path d="M2.76402747,4.26352549 C3.26824891,4.26352549 3.76010989,4.26352549 4.27434755,4.26352549 C4.27434755,4.73354256 4.27669178,5.19322373 4.26933944,5.65290489 C4.26880666,5.68700271 4.19847992,5.74827222 4.16001332,5.74880499 C3.69990593,5.755518 3.23958543,5.75317378 2.76392092,5.75317378 C2.76402747,5.25087034 2.76402747,4.76753382 2.76402747,4.26352549 Z" id="Path"></path>
            <path d="M4.26688866,7.19988012 C4.26688866,7.69781478 4.26688866,8.17763496 4.26688866,8.67503684 C3.76788845,8.67503684 3.27709303,8.67503684 2.76722414,8.67503684 C2.76722414,8.19106098 2.76722414,7.70165078 2.76722414,7.19988012 C3.26164246,7.19988012 3.7538231,7.19988012 4.26688866,7.19988012 Z" id="Path"></path>
        </g>
    </g>
</svg>