<?xml version="1.0" encoding="UTF-8"?>
<svg width="30px" height="30px" viewBox="0 0 30 30" version="1.1" xmlns="http://www.w3.org/2000/svg" xmlns:xlink="http://www.w3.org/1999/xlink">
    <!-- Generator: Sketch 52.1 (67048) - http://www.bohemiancoding.com/sketch -->
    <title>Artboard Copy 3</title>
    <desc>Created with Sketch.</desc>
    <g id="Artboard-Copy-3" stroke="none" stroke-width="1" fill="none" fill-rule="evenodd">
        <g id="touxiang-copy-2">
            <path d="M0.521267626,14.9999779 L0.521267626,15.0000221 C0.521038791,20.175596 3.28204316,24.9581214 7.76418349,27.5459744 C12.2463238,30.1338274 17.7686145,30.1338274 22.2507548,27.5459744 C26.7328952,24.9581214 29.4938995,20.175596 29.4936707,14.9999779 C29.4938995,9.824404 26.7328952,5.0418786 22.2507548,2.45402559 C17.7686145,-0.133827412 12.2463238,-0.133827412 7.76418349,2.45402559 C3.28204316,5.0418786 0.521038791,9.824404 0.521267626,14.9999779 Z" id="Path" stroke="#DCDCDC" fill="#F7F7F7"></path>
            <path d="M21.9625202,24.82156 C21.2615887,24.5483506 20.437551,24.3171065 19.5233434,24.1379365 L19.5233134,24.1379365 C19.0115407,24.0376278 18.4719611,23.9533672 17.9085942,23.8880346 C17.0839266,24.1097097 16.0846485,24.2396252 15.0074992,24.2396252 C13.9291199,24.2396252 12.928822,24.1094098 12.1036144,23.8872846 C11.4966024,23.9575068 10.9173673,24.0497164 10.3707085,24.1603441 C10.419243,24.1769922 10.4689175,24.1908806 10.518202,24.205789 C10.5346401,24.2107384 10.5510183,24.2158078 10.5672765,24.2211472 C10.5510183,24.2158378 10.5346101,24.2107684 10.518202,24.205789 C10.4689175,24.1908806 10.419243,24.1770222 10.3707085,24.1603441 C9.50812509,24.3349245 8.72803245,24.5561197 8.05940733,24.8154407 C8.0464188,24.7776749 6.43694906,25.6745145 5.51200266,26.5968212 C8.0965132,28.714494 11.4009431,29.9861716 15.0029097,29.9861716 C18.6090758,29.9861716 21.9171653,28.7117343 24.5030257,26.589622 C23.5786192,25.6727747 21.9761087,24.7822344 21.9625202,24.82156 Z" id="Path" fill="#4D846D"></path>
            <path d="M21.5828827,13.0115227 C21.392524,12.9396208 21.1813177,12.9741169 20.972781,13.0899339 C20.991229,11.8556322 20.8085194,10.7386173 20.4443002,9.85221656 L9.56139911,9.85221656 C9.1827815,10.7737433 8.9990221,11.9437323 9.03495809,13.2365275 C8.82579152,13.1198106 8.61383525,13.0848945 8.42281664,13.1570364 C7.88137729,13.3615835 7.71408601,14.3343746 8.04917851,15.3298731 C8.38421098,16.3251316 9.09453144,16.9662198 9.63591079,16.7621526 C10.1231762,18.3429756 10.8464252,19.705393 11.6770022,20.7243789 C11.8228758,20.9033388 11.9719891,21.0719499 12.1238021,21.2290124 L12.1238021,23.8848849 C12.1170229,23.8856648 12.1103336,23.8865347 12.1035544,23.8873146 C12.928762,24.1094397 13.9290599,24.2396551 15.0074392,24.2396551 C16.0845885,24.2396551 17.0838666,24.1097397 17.9085342,23.8880646 C17.8996252,23.8870447 17.8908362,23.8859048 17.8818972,23.8848849 L17.8818972,21.2302122 C18.0347301,21.0721899 18.1848633,20.9025289 18.3316968,20.7223391 C19.160534,19.705213 19.8823432,18.3460352 20.3690987,16.7692618 C20.383557,16.7224671 21.6576943,16.7692618 21.9564909,15.1843293 C22.2916433,14.1888308 22.1243521,13.2160098 21.5828827,13.0115227 Z" id="Path" fill="#EED5A1"></path>
            <path d="M20.4443302,9.90354079 C20.4443302,9.90354079 20.3786076,11.2883957 20.972811,13.2807426 C20.972811,13.2807426 23.5684203,5.73799734 18.6899767,5.73799734 C18.6899767,5.73799734 6.05608172,1.34525933 9.03498809,13.4336354 C9.03498809,13.4336354 9.11858871,13.7703477 9.26668213,14.045057 C11.268058,11.0846585 17.8977354,12.0436811 20.4443302,9.90354079 Z" id="Path" fill="#5C4948"></path>
            <polygon id="Path" fill="#B9C9C2" points="9.41426561 27.3546863 12.1232622 27.3546863 12.1232622 27.8179844 9.41426561 27.8179844"></polygon>
            <path d="M14.9933108,24.2392952 C14.9933108,24.2392952 15.6138813,25.2842882 17.1567284,25.5900739 C17.1567284,25.5900739 17.9510395,24.5343422 17.8944058,23.8877046 L14.9933108,24.2392952 Z" id="Path" fill="#B9C9C2"></path>
            <path d="M14.9919009,24.2397451 C14.9919009,24.2397451 14.3713304,25.2847381 12.8284832,25.5905239 C12.8284832,25.5905239 12.0341722,24.5347921 12.0907758,23.8881545 L14.9919009,24.2397451 Z" id="Path" fill="#B9C9C2"></path>
            <path d="M14.7204613,25.0122186 C14.7204294,25.1097304 14.7724329,25.1998486 14.8568752,25.2486137 C14.9413175,25.2973788 15.045364,25.2973788 15.1298063,25.2486137 C15.2142486,25.1998486 15.2662521,25.1097304 15.2662202,25.0122186 C15.2662521,24.9147069 15.2142486,24.8245887 15.1298063,24.7758236 C15.045364,24.7270585 14.9413175,24.7270585 14.8568752,24.7758236 C14.7724329,24.8245887 14.7204294,24.9147069 14.7204613,25.0122186 Z" id="Path" fill="#56A57E"></path>
            <path d="M14.7190215,26.0593114 C14.7190215,26.1568018 14.771032,26.2468867 14.8554612,26.2956319 C14.9398904,26.3443771 15.0439114,26.3443771 15.1283406,26.2956319 C15.2127698,26.2468867 15.2647804,26.1568018 15.2647804,26.0593114 C15.2647804,25.9086042 15.1426081,25.7864319 14.9919009,25.7864319 C14.8411938,25.7864319 14.7190215,25.9086042 14.7190215,26.0593114 Z" id="Path" fill="#56A57E"></path>
            <path d="M14.7190215,27.124912 C14.7190215,27.2224024 14.771032,27.3124873 14.8554612,27.3612326 C14.9398904,27.4099778 15.0439114,27.4099778 15.1283406,27.3612326 C15.2127698,27.3124873 15.2647804,27.2224024 15.2647804,27.124912 C15.2647804,26.9742048 15.1426081,26.8520326 14.9919009,26.8520326 C14.8411938,26.8520326 14.7190215,26.9742048 14.7190215,27.124912 Z" id="Path" fill="#56A57E"></path>
        </g>
    </g>
</svg>