<?xml version="1.0" encoding="UTF-8"?>
<svg width="20px" height="20px" viewBox="0 0 20 20" version="1.1" xmlns="http://www.w3.org/2000/svg" xmlns:xlink="http://www.w3.org/1999/xlink">
    <!-- Generator: Sketch 52.4 (67378) - http://www.bohemiancoding.com/sketch -->
    <title>Artboard</title>
    <desc>Created with Sketch.</desc>
    <g id="Artboard" stroke="none" stroke-width="1" fill="none" fill-rule="evenodd">
        <g id="xuanze-copy-2" fill="#4A90E2" fill-rule="nonzero">
            <path d="M10,0 C4.473,0 0,4.473 0,10 C0,15.527 4.474,20 10,20 C15.527,20 20,15.527 20,10 C20,4.473 15.527,0 10,0 Z M15.087,7.441 L8.935,13.673 C8.78628762,13.8257248 8.58216719,13.9118703 8.369,13.9118703 C8.15583281,13.9118703 7.95171238,13.8257248 7.803,13.673 L4.913,10.725 C4.63147875,10.4086712 4.64774294,9.92707941 4.94996435,9.63046458 C5.25218577,9.33384975 5.73399762,9.32660539 6.045,9.614 L8.372,11.984 L13.958,6.326 C14.1571756,6.12432357 14.4488145,6.04422577 14.7230592,6.11587866 C14.9973039,6.18753155 15.21249,6.40004935 15.2875592,6.67337866 C15.3626283,6.94670797 15.2861756,7.23932357 15.087,7.441 Z" id="Shape"></path>
        </g>
    </g>
</svg>