<?xml version="1.0" encoding="UTF-8"?>
<svg width="20px" height="20px" viewBox="0 0 20 20" version="1.1" xmlns="http://www.w3.org/2000/svg" xmlns:xlink="http://www.w3.org/1999/xlink">
    <!-- Generator: Sketch 52.4 (67378) - http://www.bohemiancoding.com/sketch -->
    <title>Artboard Copy</title>
    <desc>Created with Sketch.</desc>
    <g id="Artboard-Copy" stroke="none" stroke-width="1" fill="none" fill-rule="evenodd">
        <g id="jinzhi" fill="#F5A623" fill-rule="nonzero">
            <path d="M17.0679022,2.91254879 C15.1792432,1.03503851 12.6684704,0 9.99855683,0 C7.3287238,0 4.81791074,1.03503851 2.92925174,2.91254879 C1.04059274,4.79285632 0,7.29254083 0,9.9511849 C0,12.6126665 1.04055249,15.1122705 2.92927186,16.989821 C4.81793086,18.8701487 7.32874391,19.9022692 9.99857695,19.9022692 C12.6684905,19.9022692 15.1792633,18.8673514 17.0679022,16.989821 C18.9565612,15.1094934 19.997174,12.6097686 19.997174,9.94838767 C19.9971539,7.29248045 18.9566618,4.79285634 17.0679022,2.91254879 Z M10.7127582,10.668103 L9.28437563,10.668103 L4.99928848,10.668103 C4.60594446,10.668103 4.28510728,10.3472658 4.2851073,9.95390165 C4.2851073,9.56055764 4.60594448,9.23970033 4.99928848,9.23970033 L14.9978252,9.23970033 C15.3940469,9.23970033 15.712107,9.56055764 15.712107,9.95390165 C15.7120869,10.3472658 15.3940469,10.668103 14.9978051,10.668103 L10.7127582,10.668103 Z" id="Shape"></path>
        </g>
    </g>
</svg>