<?xml version="1.0" encoding="UTF-8"?>
<svg width="20px" height="20px" viewBox="0 0 20 20" version="1.1" xmlns="http://www.w3.org/2000/svg" xmlns:xlink="http://www.w3.org/1999/xlink">
    <!-- Generator: Sketch 52.4 (67378) - http://www.bohemiancoding.com/sketch -->
    <title>Artboard Copy 2</title>
    <desc>Created with Sketch.</desc>
    <g id="Artboard-Copy-2" stroke="none" stroke-width="1" fill="none" fill-rule="evenodd">
        <g id="duicuo-copy" fill="#D0021B" fill-rule="nonzero">
            <path d="M9.98971583,0.0162381597 C4.47311192,0.0162386779 0.000797779101,4.48790737 1.04267224e-06,10.0045112 C-0.000795693757,15.5211151 4.47022661,19.9940754 9.9868303,19.9956694 C15.503434,19.9972634 19.9770404,15.5268876 19.9794317,10.0102842 C19.9805804,7.36009663 18.9286027,4.81806074 17.055043,2.94368897 C15.1814834,1.06931719 12.6399036,0.0162379107 9.98971583,0.0162381597 Z M15.1123139,13.8728011 C15.3703722,14.1350245 15.4459779,14.5264466 15.3041397,14.8659126 C15.1623016,15.2053786 14.8306935,15.4266557 14.4627876,15.4273342 C14.2204517,15.4278364 13.988038,15.3311273 13.8175913,15.1588633 L9.98105548,11.3050068 L6.08389716,15.1458728 C5.9137955,15.3154816 5.68324245,15.4105069 5.44303112,15.4100135 C5.07559694,15.4058594 4.74640463,15.1819897 4.60749388,14.8418002 C4.46858314,14.5016106 4.54698746,14.1113056 4.80649526,13.8511502 L8.70365359,10.0102842 L4.8541272,6.11312585 C4.49540369,5.75440233 4.49540369,5.1727966 4.85412721,4.81407308 C5.21285072,4.45534957 5.79445645,4.45534956 6.15317997,4.81407307 L10.0027064,8.71123139 L13.8998647,4.87036536 C14.2585882,4.51164184 14.8401939,4.51164184 15.1989175,4.87036536 C15.557641,5.22908888 15.557641,5.81069461 15.1989175,6.16941813 L11.2801083,10.0405954 L15.1123139,13.8728011 Z" id="Shape"></path>
        </g>
    </g>
</svg>