<?xml version="1.0" encoding="UTF-8"?>
<svg width="50px" height="50px" viewBox="0 0 50 50" version="1.1" xmlns="http://www.w3.org/2000/svg" xmlns:xlink="http://www.w3.org/1999/xlink">
    <!-- Generator: Sketch 57.1 (83088) - https://sketch.com -->
    <title>Artboard</title>
    <desc>Created with Sketch.</desc>
    <g id="Artboard" stroke="none" stroke-width="1" fill="none" fill-rule="evenodd">
        <g id="Group-Copy-2" transform="translate(0.000000, 12.000000)">
            <path d="M0,0 C0,14.0832611 11.4167389,25.5 25.5,25.5 L25.5,25.5 C39.5832611,25.5 51,14.0832611 51,0" id="Path" fill="#FFFFFF"></path>
            <g id="shangyi" transform="translate(17.000000, 3.500000)" fill="#0D68B7" fill-rule="nonzero">
                <path d="M8.89861607,2.93509511 C8.7459375,2.68680122 8.47620536,2.52475679 8.16830357,2.52475679 L8.15303571,2.52475679 C7.9265625,2.51952955 7.70008929,2.60839262 7.52705357,2.78350515 L2.99504464,7.44358937 C2.65660714,7.79120081 2.65660714,8.35312908 2.99504464,8.70074053 C3.33348214,9.04835197 3.88058036,9.04835197 4.21901786,8.70074053 L7.30566964,5.53041963 L7.30566964,17.1113692 C7.30566964,17.6027298 7.69245536,18 8.17084821,18 C8.64924107,18 9.03602679,17.6027298 9.03602679,17.1113692 L9.03602679,5.58791927 L12.0641518,8.69812691 C12.4025893,9.04573835 12.9496875,9.04573835 13.288125,8.69812691 C13.6265625,8.35051546 13.6265625,7.78858719 13.288125,7.44097575 L8.89861607,2.93509511 Z M15.4205357,2.27373675e-13 L0.865178571,2.27373675e-13 C0.386785714,2.27373675e-13 0,0.397270219 0,0.888630754 C0,1.37999129 0.386785714,1.77726151 0.865178571,1.77726151 L15.4205357,1.77726151 C15.8989286,1.77726151 16.2857143,1.37999129 16.2857143,0.888630754 C16.2857143,0.394656599 15.8989286,2.27373675e-13 15.4205357,2.27373675e-13 Z" id="Shape"></path>
            </g>
        </g>
    </g>
</svg>