<?xml version="1.0" encoding="UTF-8"?>
<svg width="20px" height="20px" viewBox="0 0 20 20" version="1.1" xmlns="http://www.w3.org/2000/svg" xmlns:xlink="http://www.w3.org/1999/xlink">
    <!-- Generator: Sketch 57.1 (83088) - https://sketch.com -->
    <title>12</title>
    <desc>Created with Sketch.</desc>
    <g id="12" stroke="none" stroke-width="1" fill="none" fill-rule="evenodd">
        <g id="biyan" transform="translate(0.000000, 6.000000)" fill="#000000" fill-rule="nonzero">
            <path d="M19.8950037,3.18503453 L18.7346123,1.61639297 C19.071703,1.3547983 19.4066254,1.07796645 19.7391626,0.785798855 C19.9231719,0.624123057 19.9412869,0.343900783 19.7796309,0.159891581 C19.6179551,-0.0241176355 19.3377328,-0.0422524398 19.1537039,0.119423358 C16.8767796,2.11981142 14.4971769,3.36551533 12.0810285,3.82198039 C10.1565898,4.18560309 8.19846372,4.05288386 6.26109413,3.4275088 C4.52450842,2.86698541 3.12418553,2.00609432 2.25525205,1.38261158 C1.31693321,0.709336958 0.778073027,0.159615602 0.763289202,0.14443756 C0.593078223,-0.0317066566 0.31232372,-0.0365360392 0.136159789,0.133655226 C-0.0399844277,0.303866205 -0.0448138102,0.584640407 0.125377455,0.760784639 C0.145483449,0.781600256 0.563412018,1.21127703 1.31535625,1.78922562 L0.271067018,3.13782488 C0.1211,3.33149285 0.156522018,3.61005934 0.350209699,3.76002636 C0.431008178,3.82261117 0.526570753,3.85288842 0.621423705,3.85288842 C0.753926099,3.85288842 0.885028976,3.79375316 0.972411175,3.68088366 L2.03381021,2.31016782 C2.81350858,2.84307505 3.89716218,3.48266229 5.20042441,3.99061444 L4.49675426,5.50948383 C4.39378006,5.73173384 4.49048592,5.99537852 4.71275565,6.09835273 C4.77311303,6.12630399 4.83648633,6.13955029 4.89891343,6.13955029 C5.06632535,6.13955029 5.22662133,6.04426367 5.30162453,5.88235134 L6.0402239,4.28804508 C7.18991187,4.65421059 8.34701146,4.85870032 9.50188361,4.90084404 L9.50188361,6.58951045 C9.50188361,6.8344684 9.7004598,7.03302488 9.94539804,7.03302488 C10.190356,7.03302488 10.3889125,6.83446839 10.3889125,6.58951045 L10.3889125,4.90135654 C11.0021057,4.87951592 11.6139782,4.81174691 12.2229334,4.69785241 C12.8752544,4.57585637 13.5241653,4.40061889 14.1685228,4.17286931 L14.9468019,5.78972581 C15.0231849,5.94842514 15.1816477,6.04097181 15.3467336,6.04097181 C15.4112305,6.04097181 15.4767918,6.02683848 15.5387852,5.99699489 C15.759478,5.89074855 15.8522809,5.62570432 15.7460543,5.40501154 L14.9974611,3.84985282 C16.0199886,3.41404568 17.0296639,2.84478997 18.0218944,2.1444314 L19.1818916,3.71256045 C19.2688796,3.83016077 19.4029589,3.89233164 19.5387926,3.89233164 C19.6304326,3.89233164 19.7228807,3.86402557 19.8022008,3.80536339 C19.9991212,3.65967383 20.0406736,3.38195494 19.8950037,3.18503453 Z" id="Path"></path>
        </g>
    </g>
</svg>