<?xml version="1.0" encoding="UTF-8"?>
<svg width="40px" height="40px" viewBox="0 0 40 40" version="1.1" xmlns="http://www.w3.org/2000/svg" xmlns:xlink="http://www.w3.org/1999/xlink">
    <!-- Generator: Sketch 57.1 (83088) - https://sketch.com -->
    <title>Artboard Copy 7</title>
    <desc>Created with Sketch.</desc>
    <g id="Artboard-Copy-7" stroke="none" stroke-width="1" fill="none" fill-rule="evenodd">
        <g id="communication-copy" transform="translate(4.000000, 0.000000)" fill-rule="nonzero">
            <path d="M5.72620739,39.9502841 L29.2683391,39.9502841 C31.2658533,39.9502841 32.8353287,38.3808087 32.8353287,36.3832945 L32.8353287,22.8287338 L0.019023956,22.8287338 L0.019023956,34.2431007 C0.019023956,37.3820516 2.58725649,39.9502841 5.72620739,39.9502841 Z" id="Path" fill="#BAE7FF"></path>
            <path d="M21.706321,39.9502841 L3.58601359,39.9502841 C1.58849939,39.9502841 0.019023956,38.3808087 0.019023956,36.3832945 L0.019023956,3.56698963 C0.019023956,1.56947543 1.58849939,0 3.58601359,0 L29.1256595,0 C31.2658533,0 32.8353287,1.56947543 32.8353287,3.56698963 L32.8353287,28.963956 L21.706321,39.9502841 Z" id="Path" fill="#00B063"></path>
            <path d="M21.8490006,39.9502841 L21.8490006,31.6748681 C21.8490006,30.2480722 22.9904373,28.963956 24.5599127,28.963956 L32.8353287,28.963956 L21.8490006,39.9502841 Z" id="Path" fill="#17CC00"></path>
            <path d="M7.15300326,25.6823255 L25.7013494,25.6823255 C26.5574269,25.6823255 27.1281453,25.1116071 27.1281453,24.2555296 C27.1281453,23.3994521 26.557427,22.8287338 25.7013494,22.8287338 L7.15300326,22.8287338 C6.29692575,22.8287338 5.72620739,23.3994521 5.72620739,24.2555296 C5.72620739,25.1116072 6.29692571,25.6823255 7.15300326,25.6823255 Z M18.5673701,18.5483462 L25.7013494,18.5483462 C26.5574269,18.5483462 27.1281453,17.9776278 27.1281453,17.1215503 C27.1281453,16.2654728 26.557427,15.6947545 25.7013494,15.6947545 L18.5673701,15.6947545 C17.7112926,15.6947545 17.1405743,16.2654728 17.1405743,17.1215503 C17.1405743,17.9776279 17.7112926,18.5483462 18.5673701,18.5483462 Z" id="Shape" fill="#BAE7FF"></path>
            <path d="M7.15300326,18.5483462 L12.8601867,18.5483462 C13.7162642,18.5483462 14.2869825,17.9776278 14.2869825,17.1215503 L14.2869825,9.98757102 C14.2869825,9.13149351 13.7162642,8.56077515 12.8601867,8.56077515 L7.15300326,8.56077515 C6.29692575,8.56077515 5.72620739,9.13149347 5.72620739,9.98757102 L5.72620739,17.1215503 C5.72620739,17.9776278 6.29692571,18.5483462 7.15300326,18.5483462 Z" id="Path" fill="#BAE7FF"></path>
            <path d="M18.5673701,11.4143669 L25.7013494,11.4143669 C26.5574269,11.4143669 27.1281453,10.8436486 27.1281453,9.98757102 C27.1281453,9.13149347 26.557427,8.56077515 25.7013494,8.56077515 L18.5673701,8.56077515 C17.7112926,8.56077515 17.1405743,9.13149347 17.1405743,9.98757102 C17.1405743,10.8436486 17.7112926,11.4143669 18.5673701,11.4143669 Z" id="Path" fill="#BAE7FF"></path>
        </g>
    </g>
</svg>