<?xml version="1.0" encoding="UTF-8"?>
<svg width="50px" height="50px" viewBox="0 0 50 50" version="1.1" xmlns="http://www.w3.org/2000/svg" xmlns:xlink="http://www.w3.org/1999/xlink">
    <!-- Generator: Sketch 57.1 (83088) - https://sketch.com -->
    <title>Artboard Copy 8</title>
    <desc>Created with Sketch.</desc>
    <g id="Artboard-Copy-8" stroke="none" stroke-width="1" fill="none" fill-rule="evenodd">
        <g id="file-copy" transform="translate(3.000000, 6.000000)" fill-rule="nonzero">
            <path d="M3.14070351,-1.42108547e-14 L15.7035176,-1.42108547e-14 C19.1726429,-1.42108547e-14 21.9849246,2.81228174 21.9849246,6.28140705 L21.9849246,34.5477387 C21.9849246,36.2823014 20.5787838,37.6884422 18.8442211,37.6884422 L3.14070351,37.6884422 C1.40614086,37.6884422 -7.10542736e-15,36.2823014 -7.10542736e-15,34.5477387 L-7.10542736e-15,3.14070351 C-7.10542736e-15,1.40614086 1.40614086,-1.42108547e-14 3.14070351,-1.42108547e-14 Z" id="Path" fill="#CF5A1A"></path>
            <path d="M0,4.71105528 L40.8291457,4.71105528 C41.6621121,4.71105528 42.4609623,5.04194986 43.0499585,5.63094602 C43.6389547,6.21994218 43.9698493,7.01879242 43.9698493,7.85175878 L43.9698493,34.5477387 C43.9698493,35.3807051 43.6389547,36.1795553 43.0499585,36.7685515 C42.4609623,37.3575476 41.6621121,37.6884422 40.8291457,37.6884422 L3.14070351,37.6884422 C1.40614086,37.6884422 0,36.2823014 0,34.5477387 L0,4.71105528 Z" id="Path" fill="#FF7A45"></path>
            <path d="M11.7776382,23.5552764 C13.0785602,23.5552764 14.1331658,24.609882 14.1331658,25.910804 C14.1331658,27.211726 13.0785602,28.2663317 11.7776382,28.2663317 C10.4767162,28.2663317 9.42211055,27.211726 9.42211055,25.910804 C9.42211055,24.609882 10.4767162,23.5552764 11.7776382,23.5552764 Z M32.9773869,24.3404522 C33.8446683,24.3404522 34.5477387,25.0435227 34.5477387,25.910804 C34.5477387,26.7780854 33.8446683,27.4811558 32.9773869,27.4811558 L20.4145729,27.4811558 C19.5472915,27.4811558 18.8442211,26.7780854 18.8442211,25.910804 C18.8442211,25.0435227 19.5472915,24.3404522 20.4145729,24.3404522 L32.9773869,24.3404522 Z M11.7776382,14.1331658 C13.0785602,14.1331658 14.1331658,15.1877715 14.1331658,16.4886935 C14.1331658,17.7896155 13.0785602,18.8442211 11.7776382,18.8442211 C10.4767162,18.8442211 9.42211055,17.7896155 9.42211055,16.4886935 C9.42211055,15.1877715 10.4767162,14.1331658 11.7776382,14.1331658 Z M32.9773869,14.9183417 C33.8446683,14.9183417 34.5477387,15.6214121 34.5477387,16.4886935 C34.5477387,17.3559748 33.8446683,18.0590452 32.9773869,18.0590452 L20.4145729,18.0590452 C19.5472915,18.0590452 18.8442211,17.3559748 18.8442211,16.4886935 C18.8442211,15.6214121 19.5472915,14.9183417 20.4145729,14.9183417 L32.9773869,14.9183417 Z" id="Shape" fill="#FFBB96"></path>
        </g>
    </g>
</svg>