<?xml version="1.0" encoding="UTF-8"?>
<svg width="20px" height="20px" viewBox="0 0 20 20" version="1.1" xmlns="http://www.w3.org/2000/svg" xmlns:xlink="http://www.w3.org/1999/xlink">
    <!-- Generator: Sketch 57.1 (83088) - https://sketch.com -->
    <title>全部</title>
    <desc>Created with Sketch.</desc>
    <g id="Page-1" stroke="none" stroke-width="1" fill="none" fill-rule="evenodd">
        <g id="Artboard-Copy-12" fill="#E7A343" fill-rule="nonzero">
            <g id="全部">
                <path d="M7.30237433,9.19082353 L2.01232086,9.19082353 C0.943037433,9.19082353 0.0730695187,8.32053476 0.0730695187,7.25084492 L0.0730695187,1.9611123 C0.0730695187,0.891465241 0.943016043,0.0212192513 2.01232086,0.0212192513 L7.30237433,0.0212192513 C8.37227807,0.0212192513 9.24265241,0.891465241 9.24265241,1.9611123 L9.24265241,7.25084492 C9.24265241,8.32051337 8.37223529,9.19082353 7.30237433,9.19082353 Z M2.01234225,1.31007487 C1.65373262,1.31007487 1.36196791,1.60209626 1.36196791,1.96109091 L1.36196791,7.25082353 C1.36196791,7.60979679 1.65368984,7.90192513 2.01234225,7.90192513 L7.30239572,7.90192513 C7.66160428,7.90192513 7.95379679,7.60986096 7.95379679,7.25082353 L7.95379679,1.96109091 C7.95379679,1.60211765 7.66151872,1.31007487 7.30239572,1.31007487 L2.01234225,1.31007487 Z M18.0185027,9.19082353 L12.7285348,9.19082353 C11.6591016,9.19082353 10.7890267,8.32053476 10.7890267,7.25084492 L10.7890267,1.9611123 C10.7890267,0.891465241 11.6590802,0.0212192513 12.7285348,0.0212192513 L18.0185241,0.0212192513 C19.0884706,0.0212192513 19.9589091,0.891465241 19.9589091,1.9611123 L19.9589091,7.25084492 C19.9589091,8.32051337 19.0884706,9.19082353 18.0185027,9.19082353 Z M12.7285348,1.31007487 C12.3697754,1.31007487 12.0779251,1.60209626 12.0779251,1.96109091 L12.0779251,7.25082353 C12.0779251,7.60979679 12.3698182,7.90192513 12.7285348,7.90192513 L18.0185241,7.90192513 C18.3777754,7.90192513 18.6700107,7.60986096 18.6700107,7.25082353 L18.6700107,1.96109091 C18.6700107,1.60211765 18.3777326,1.31007487 18.0185241,1.31007487 L12.7285348,1.31007487 Z M7.30237433,19.512877 L2.01232086,19.512877 C0.903550802,19.512877 0.00147593583,18.6105668 0.00147593583,17.5013904 L0.00147593583,12.2122567 C0.00147593583,11.1028877 0.903572193,10.2003422 2.01232086,10.2003422 L7.30237433,10.2003422 C8.41174332,10.2003422 9.31428877,11.1028663 9.31428877,12.2122567 L9.31428877,17.5013904 C9.31428877,18.6105241 8.41176471,19.512877 7.30237433,19.512877 L7.30237433,19.512877 Z M2.01234225,11.6324492 C1.69321925,11.6324492 1.43360428,11.8925348 1.43360428,12.2122567 L1.43360428,17.5013904 C1.43360428,17.8208342 1.69324064,18.0807701 2.01234225,18.0807701 L7.30239572,18.0807701 C7.62211765,18.0807701 7.88220321,17.8208128 7.88220321,17.5013904 L7.88220321,12.2122567 C7.88220321,11.8925134 7.62211765,11.6324492 7.30239572,11.6324492 L2.01234225,11.6324492 Z M15.3730695,19.4412834 C12.8454332,19.4412834 10.7890481,17.3847273 10.7890481,14.8568128 C10.7890481,12.3287059 12.8454545,10.2719786 15.3730695,10.2719786 C17.9017112,10.2719786 19.9589091,12.3287273 19.9589091,14.8568128 C19.9589091,17.3847273 17.9017112,19.4412834 15.3730695,19.4412834 L15.3730695,19.4412834 Z M15.3730695,11.5608342 C13.5561283,11.5608342 12.0779251,13.0393797 12.0779251,14.8567701 C12.0779251,16.6739893 13.556107,18.1523422 15.3730695,18.1523422 C17.191016,18.1523422 18.6700107,16.6739251 18.6700107,14.8567701 C18.6700107,13.0393369 17.191016,11.5608342 15.3730695,11.5608342 Z" id="Shape"></path>
                <path d="M19.3545027,19.505262 L19.3536684,19.505262 C19.1802781,19.505262 19.0233369,19.4348663 18.909754,19.3211551 L17.6744813,18.0873583 C17.4285134,17.8417754 17.4282995,17.4432513 17.6739037,17.1973262 C17.9194866,16.9513583 18.3180107,16.9510374 18.5639572,17.1967487 L19.7992299,18.4305455 C20.0451979,18.6761283 20.0454118,19.0746524 19.7998075,19.3205775 C19.6861818,19.4346738 19.5290267,19.505262 19.3553155,19.505262 L19.3545027,19.505262 L19.3545027,19.505262 Z" id="Shape"></path>
            </g>
        </g>
    </g>
</svg>