<?xml version="1.0" encoding="UTF-8"?>
<svg width="40px" height="40px" viewBox="0 0 40 40" version="1.1" xmlns="http://www.w3.org/2000/svg" xmlns:xlink="http://www.w3.org/1999/xlink">
    <!-- Generator: Sketch 57.1 (83088) - https://sketch.com -->
    <title>Artboard Copy 6</title>
    <desc>Created with Sketch.</desc>
    <g id="Artboard-Copy-6" stroke="none" stroke-width="1" fill="none" fill-rule="evenodd">
        <g id="question-copy" fill-rule="nonzero">
            <path d="M35.6698965,9.98757102 L35.6698965,24.2555296 C35.6698965,27.3944805 33.101664,29.9627131 29.9627131,29.9627131 L5.70718343,29.9627131 L5.70718343,31.3895089 C5.70718343,33.8150619 7.56201804,35.6698965 9.98757102,35.6698965 L33.5297027,35.6698965 L39.9502841,39.9502841 L39.9502841,14.2679586 C39.9502841,11.8424056 38.0954495,9.98757102 35.6698965,9.98757102 Z" id="Path" fill="#FF9E59"></path>
            <path d="M6.42058139,27.1091214 L0,31.3895089 L0,4.28038759 C0,1.85483461 1.85483461,0 4.28038759,0 L28.5359172,0 C30.9614702,0 32.8163048,1.85483461 32.8163048,4.28038759 L32.8163048,22.8287338 C32.8163048,25.2542867 30.9614702,27.1091214 28.5359172,27.1091214 L6.42058139,27.1091214 Z" id="Path" fill="#FF7A45"></path>
            <path d="M4.28038757,13.5545607 C4.28028428,14.3192471 4.68818032,15.0258907 5.350401,15.4082638 C6.01262169,15.7906369 6.82854105,15.7906369 7.49076173,15.4082638 C8.15298242,15.0258907 8.56087845,14.3192471 8.56077517,13.5545607 C8.56087845,12.7898742 8.15298242,12.0832306 7.49076173,11.7008575 C6.82854105,11.3184845 6.01262169,11.3184845 5.350401,11.7008575 C4.68818032,12.0832306 4.28028428,12.7898742 4.28038757,13.5545607 L4.28038757,13.5545607 Z" id="Path" fill="#FFD8BF"></path>
            <path d="M14.2679586,13.5545607 C14.2678559,14.3192467 14.6757521,15.0258897 15.3379725,15.4082624 C16.0001929,15.7906351 16.8161118,15.7906351 17.4783323,15.4082624 C18.1405527,15.0258897 18.5484489,14.3192467 18.5483462,13.5545607 C18.5484489,12.7898746 18.1405527,12.0832316 17.4783323,11.7008589 C16.8161118,11.3184862 16.0001929,11.3184862 15.3379725,11.7008589 C14.6757521,12.0832316 14.2678559,12.7898746 14.2679586,13.5545607 Z" id="Path" fill="#FFD8BF"></path>
            <path d="M24.2555296,13.5545607 C24.2554269,14.3192467 24.6633231,15.0258897 25.3255435,15.4082624 C25.987764,15.7906351 26.8036829,15.7906351 27.4659033,15.4082624 C28.1281237,15.0258897 28.5360199,14.3192467 28.5359172,13.5545607 C28.5360199,12.7898746 28.1281237,12.0832316 27.4659033,11.7008589 C26.8036829,11.3184862 25.987764,11.3184862 25.3255435,11.7008589 C24.6633231,12.0832316 24.2554269,12.7898746 24.2555296,13.5545607 Z" id="Path" fill="#FFD8BF"></path>
        </g>
    </g>
</svg>