<?xml version="1.0" encoding="UTF-8"?>
<svg width="50px" height="50px" viewBox="0 0 50 50" version="1.1" xmlns="http://www.w3.org/2000/svg" xmlns:xlink="http://www.w3.org/1999/xlink">
    <!-- Generator: Sketch 57.1 (83088) - https://sketch.com -->
    <title>Artboard Copy 10</title>
    <desc>Created with Sketch.</desc>
    <g id="Artboard-Copy-10" stroke="none" stroke-width="1" fill="none" fill-rule="evenodd">
        <g id="cooperate-copy" transform="translate(3.000000, 2.000000)" fill-rule="nonzero">
            <path d="M43.8640363,35.1431564 C43.8495371,29.4514996 40.8001526,24.1997818 35.8642358,21.3657223 C34.3485767,22.5861607 32.5665321,23.432068 30.6627195,23.8347965 C35.2903274,27.7077808 37.9563077,33.437829 37.9382582,39.4722666 L37.9382582,40.1306864 C40.0172052,39.4336201 41.9851558,38.4413295 43.7817339,37.1842578 C43.8507334,36.5062033 43.8782188,35.824565 43.8640363,35.1431564 L43.8640363,35.1431564 Z" id="Path" fill="#FAAD14"></path>
            <path d="M27.8973564,0.740722273 C27.2398257,0.747772737 26.5842578,0.813880415 25.9385575,0.938248191 C29.2913576,3.38092465 31.3771954,7.19406392 31.6256433,11.3348622 C31.8740912,15.4756606 30.2591529,19.5108464 27.2224761,22.3368915 L27.8973564,22.3368915 C33.8791556,22.3368915 38.7283619,17.4876851 38.7283619,11.5058859 C38.7283619,5.52408668 33.8791556,0.6748803 27.8973564,0.6748803 L27.8973564,0.740722273 Z" id="Path" fill="#FFE58F"></path>
            <path d="M8.98424782,23.1599162 C14.1878022,27.4197511 21.6732513,27.4197511 26.8768057,23.1599162 C32.4484907,26.3570815 35.8834057,32.2912584 35.8806983,38.7150838 C35.8810616,39.4801615 35.8315753,40.2444501 35.7325519,41.0030926 C30.4961691,44.4580489 24.3252667,46.2219847 18.0539804,46.0564645 C11.6812916,46.2281579 5.41601201,44.3911871 0.144962085,40.8055666 C0.0601201393,40.1009003 0.0161519056,39.3919124 0.0132736784,38.6821628 C0.00876432664,32.2750805 3.43045426,26.3546151 8.98424782,23.1599162 L8.98424782,23.1599162 Z" id="Path" fill="#FAAD14"></path>
            <polygon id="Path" fill="#D46B08" points="21.2966979 26.6660016 20.1280028 29.8264166 21.3131584 37.2007183 18.1856644 41.0030926 14.8935654 37.2007183 16.2597865 29.8428771 14.8606445 26.6660016"></polygon>
            <path d="M17.9222965,24.3617105 C11.2037358,24.3252153 5.78327249,18.855724 5.80737063,12.1371087 C5.83162993,5.4184934 11.2913192,-0.0118427328 18.0099672,0.000177573635 C24.7286153,0.0122378468 30.1689046,5.46210733 30.1689046,12.1807661 C30.1689046,15.4227465 28.8765907,18.5309921 26.5779937,20.817231 C24.2793968,23.1034699 21.1642295,24.3790565 17.9222965,24.3617105 L17.9222965,24.3617105 Z" id="Path" fill="#FFE58F"></path>
        </g>
    </g>
</svg>