<?xml version="1.0" encoding="UTF-8"?>
<svg width="50px" height="50px" viewBox="0 0 50 50" version="1.1" xmlns="http://www.w3.org/2000/svg" xmlns:xlink="http://www.w3.org/1999/xlink">
    <!-- Generator: Sketch 57.1 (83088) - https://sketch.com -->
    <title>Artboard Copy 11</title>
    <desc>Created with Sketch.</desc>
    <g id="Artboard-Copy-11" stroke="none" stroke-width="1" fill="none" fill-rule="evenodd">
        <g id="xuexijilu--copy" transform="translate(3.000000, 3.000000)" fill-rule="nonzero">
            <path d="M0.0298049133,3.35951048 C0.149024566,1.56624819 1.55482298,0.135612355 3.31828035,0.0163927023 L40.5992594,0.0163927023 C42.3428468,-0.0581195809 43.81819,1.31787392 43.8877348,3.09126626 C43.8927023,3.180681 43.8927023,3.27009574 43.8877348,3.35951048 C43.7685152,5.15277276 42.3627168,6.5834086 40.5992594,6.70262825 L2.77185694,6.70262825 C1.11768425,6.52876626 -0.099349711,5.04845556 0.0298049133,3.35951048 Z" id="Path" fill="#FF9100"></path>
            <path d="M2.9556539,3.35951048 L2.9556539,42.364207 C2.9556539,44.0382496 5.14631503,45.1509664 6.24412934,44.0382496 L8.98618136,41.2514902 L11.7282334,43.4818913 C12.5578035,44.0382496 13.6357478,44.0382496 14.4702854,43.4818913 L17.2123374,40.6951319 L19.9543895,43.4818913 C20.7839595,44.0382496 21.8619039,44.0382496 22.6964415,43.4818913 L25.4384935,40.6951319 L28.1805455,43.4818913 C29.0101156,44.0382496 30.08806,44.0382496 30.9225975,43.4818913 L33.6646496,40.6951319 L36.4067016,43.4818913 C37.1816293,44.2419165 38.4185332,44.2170791 39.1686236,43.4272489 C39.5759574,42.9950777 39.7696893,42.4039469 39.7001445,41.8128161 L39.7001445,3.36447796 L2.9556539,3.36447796 L2.9556539,3.35951048 Z" id="Path" fill="#FF9D1C"></path>
            <path d="M10.650289,10.6517793 L28.2153179,10.6517793 C29.0697254,10.6517793 29.7651734,11.2180726 29.7651734,11.9184881 C29.7651734,12.6189035 29.0697254,13.1851969 28.2153179,13.1851969 L10.650289,13.1851969 C9.7958815,13.1851969 9.10043353,12.6189035 9.10043353,11.9184881 C9.10043353,11.2180726 9.7958815,10.6517793 10.650289,10.6517793 Z M9.93000361,17.4125271 L24.8374277,17.4125271 C25.2944364,17.4125271 25.6669978,17.9788204 25.6669978,18.6792359 C25.6669978,19.3796514 25.2944364,19.9459447 24.8374277,19.9459447 L9.93000361,19.9459447 C9.47299494,19.9459447 9.10043353,19.3796514 9.10043353,18.6792359 C9.10043353,17.9788204 9.47299494,17.4125271 9.93000361,17.4125271 Z M11.4103143,24.1683074 L31.4143786,24.1683074 C32.6910224,24.1683074 33.7242594,24.7346008 33.7242594,25.4350163 C33.7242594,26.1354317 32.6910224,26.7017251 31.4143786,26.7017251 L11.4103143,26.7017251 C10.1336705,26.7017251 9.10043353,26.1354317 9.10043353,25.4350163 C9.10043353,24.7346008 10.1336705,24.1683074 11.4103143,24.1683074 Z M10.4019147,30.9240878 L28.5729769,30.9240878 C29.2882948,30.9240878 29.8694906,31.4903811 29.8694906,32.1907966 C29.8694906,32.8912121 29.2882948,33.4575054 28.5729769,33.4575054 L10.4019147,33.4575054 C9.68659682,33.4575054 9.1053694,32.8912121 9.1053694,32.1907966 C9.10043353,31.4903811 9.68162934,30.9240878 10.4019147,30.9240878 Z" id="Shape" fill="#FFF1DF"></path>
        </g>
    </g>
</svg>