<?xml version="1.0" encoding="UTF-8"?>
<svg width="50px" height="50px" viewBox="0 0 50 50" version="1.1" xmlns="http://www.w3.org/2000/svg" xmlns:xlink="http://www.w3.org/1999/xlink">
    <!-- Generator: Sketch 57.1 (83088) - https://sketch.com -->
    <title>Artboard Copy 4</title>
    <desc>Created with Sketch.</desc>
    <g id="Artboard-Copy-4" stroke="none" stroke-width="1" fill="none" fill-rule="evenodd">
        <g id="monitor-copy" transform="translate(3.000000, 0.000000)" fill-rule="nonzero">
            <path d="M0.0325096656,21.8869919 C0.0325096656,33.9748438 9.83164973,43.7739838 21.9195016,43.7739838 C34.0073534,43.7739838 43.8064935,33.9748438 43.8064935,21.8869919 C43.8064935,9.79914006 34.0073534,2.84217094e-14 21.9195016,2.84217094e-14 C9.83164973,2.84217094e-14 0.0325096656,9.79914006 0.0325096656,21.8869919 Z" id="Path" fill="#B5F5EC"></path>
            <path d="M7.07074847,21.8869919 C7.07074847,27.1919405 9.90090472,32.0939152 14.495125,34.7463895 C19.0893452,37.3988638 24.749658,37.3988638 29.3438782,34.7463895 C33.9380984,32.0939152 36.7682547,27.1919405 36.7682547,21.8869919 C36.7682547,13.686252 30.1202415,7.0382388 21.9195016,7.0382388 C13.7187617,7.0382388 7.07074847,13.686252 7.07074847,21.8869919 Z" id="Path" fill="#36CFC9"></path>
            <path d="M14.0914355,17.9729588 C14.0914355,19.3713192 14.8374259,20.6634644 16.0484387,21.3626493 C17.2594515,22.0618342 18.7514856,22.0618342 19.9624984,21.3626493 C21.1735112,20.6634644 21.9195016,19.3713192 21.9195016,17.9729588 C21.9195016,16.5745985 21.1735112,15.2824533 19.9624984,14.5832684 C18.7514856,13.8840835 17.2594515,13.8840835 16.0484387,14.5832684 C14.8374259,15.2824533 14.0914355,16.5745985 14.0914355,17.9729588 L14.0914355,17.9729588 Z" id="Path" fill="#B5F5EC"></path>
            <path d="M9.63329923,43.3351909 L7.87812745,43.3351909 L6.12295572,48.9517405 L37.7160474,48.9517405 L35.9608757,43.3351909 L34.2057039,43.3351909 C26.7143417,48.1222436 17.1246615,48.1222436 9.63329923,43.3351909 L9.63329923,43.3351909 Z" id="Path" fill="#08979C"></path>
        </g>
    </g>
</svg>