<?xml version="1.0" encoding="UTF-8"?>
<svg width="40px" height="40px" viewBox="0 0 40 40" version="1.1" xmlns="http://www.w3.org/2000/svg" xmlns:xlink="http://www.w3.org/1999/xlink">
    <!-- Generator: Sketch 57.1 (83088) - https://sketch.com -->
    <title>Artboard Copy 5</title>
    <desc>Created with Sketch.</desc>
    <g id="Artboard-Copy-5" stroke="none" stroke-width="1" fill="none" fill-rule="evenodd">
        <g id="task-2-copy" transform="translate(0.000000, 1.000000)" fill-rule="nonzero">
            <path d="M5.71216406,4.28412305 L34.2729843,4.28412305 C37.4277254,4.28412305 39.9851484,6.84154599 39.9851484,9.99628708 L39.9851484,34.9870048 C39.9851484,35.9338549 39.6090137,36.8419244 38.9394896,37.5114485 C38.2699655,38.1809726 37.3618959,38.5571074 36.4150458,38.5571074 L5.71216406,38.5571074 C2.55742296,38.5571074 0,35.9996844 0,32.8449433 L0,9.99628708 C0,6.84154599 2.55742298,4.28412305 5.71216406,4.28412305 Z" id="Path" fill="#BAE7FF"></path>
            <path d="M5.71216406,4.28412305 L34.2729843,4.28412305 C37.4277254,4.28412305 39.9851484,6.84154599 39.9851484,9.99628708 L39.9851484,27.8467998 L34.2729843,33.0020278 L34.1873019,33.0877103 L28.5608203,38.5571074 L5.71216406,38.5571074 C2.55742296,38.5571074 0,35.9996844 0,32.8449433 L0,9.99628708 C0,6.84154599 2.55742298,4.28412305 5.71216406,4.28412305 Z" id="Path" fill="#1890FF"></path>
            <path d="M5.71216406,4.28412305 L34.2729843,4.28412305 C37.4277254,4.28412305 39.9851484,6.84154599 39.9851484,9.99628708 L39.9851484,27.8467998 L32.173764,27.8467998 C30.2020509,27.8467998 28.6036615,29.4451891 28.6036615,31.4169023 L28.6036615,38.5571074 L5.71216406,38.5571074 C2.55742296,38.5571074 0,35.9996844 0,32.8449433 L0,9.99628708 C0,6.84154599 2.55742298,4.28412305 5.71216406,4.28412305 Z" id="Path" fill="#69C0FF"></path>
            <path d="M12.8523691,-7.10542736e-15 C13.2311091,-7.10542736e-15 13.594337,0.150453889 13.8621466,0.41826353 C14.1299562,0.68607317 14.2804101,1.04930099 14.2804101,1.42804102 L14.2804101,7.95418843 C14.2804101,8.33292845 14.1299562,8.69615627 13.8621466,8.96396592 C13.594337,9.23177556 13.2311091,9.38222945 12.8523691,9.38222945 C12.4736291,9.38222945 12.1104013,9.23177556 11.8425916,8.96396592 C11.574782,8.69615628 11.4243281,8.33292845 11.4243281,7.95418843 L11.4243281,1.42804102 C11.4243281,1.04930099 11.574782,0.68607317 11.8425916,0.41826353 C12.1104013,0.150453889 12.4736291,-7.10542736e-15 12.8523691,-7.10542736e-15 Z M27.1327793,-7.10542736e-15 C27.5115193,-7.10542736e-15 27.8747471,0.150453889 28.1425568,0.41826353 C28.4103664,0.68607317 28.5608203,1.04930099 28.5608203,1.42804102 L28.5608203,7.95418843 C28.5608203,8.33292845 28.4103664,8.69615628 28.1425568,8.96396592 C27.8747471,9.23177556 27.5115193,9.38222945 27.1327793,9.38222945 C26.7540392,9.38222945 26.3908114,9.23177556 26.1230018,8.96396592 C25.8551921,8.69615628 25.7047383,8.33292845 25.7047383,7.95418843 L25.7047383,1.42804102 C25.7047383,1.04930099 25.8551921,0.68607317 26.1230018,0.41826353 C26.3908114,0.150453889 26.7540392,-7.10542736e-15 27.1327793,-7.10542736e-15 L27.1327793,-7.10542736e-15 Z" id="Shape" fill="#BAE7FF"></path>
            <path d="M9.99628708,18.5645332 C9.99628708,19.3298253 10.4045485,20.0369889 11.0673091,20.4196381 C11.7300697,20.8022873 12.5466275,20.8022873 13.2093881,20.4196381 C13.8721487,20.0369889 14.2804101,19.3298253 14.2804101,18.5645332 C14.2804101,17.7992411 13.8721487,17.0920774 13.2093881,16.7094282 C12.5466275,16.3267791 11.7300697,16.3267791 11.0673091,16.7094282 C10.4045485,17.0920774 9.99628708,17.7992411 9.99628708,18.5645332 L9.99628708,18.5645332 Z" id="Path" fill="#BAE7FF"></path>
            <path d="M19.9925742,17.1364922 L28.5608203,17.1364922 C29.3495055,17.1364922 29.9888613,17.7758479 29.9888613,18.5645332 C29.9888613,19.3532184 29.3495055,19.9925742 28.5608203,19.9925742 L19.9925742,19.9925742 C19.6138342,19.9925742 19.2506063,19.8421203 18.9827967,19.5743107 C18.7149871,19.306501 18.5645332,18.9432732 18.5645332,18.5645332 C18.5645332,18.1857931 18.7149871,17.8225653 18.9827967,17.5547557 C19.2506063,17.286946 19.6138342,17.1364922 19.9925742,17.1364922 L19.9925742,17.1364922 Z M19.9925742,24.2766972 L28.5608203,24.2766972 C29.3495055,24.2766972 29.9888613,24.916053 29.9888613,25.7047383 C29.9888613,26.4934235 29.3495055,27.1327793 28.5608203,27.1327793 L19.9925742,27.1327793 C19.6138342,27.1327793 19.2506063,26.9823254 18.9827967,26.7145157 C18.7149871,26.4467061 18.5645332,26.0834783 18.5645332,25.7047383 C18.5645332,25.3259982 18.7149871,24.9627704 18.9827967,24.6949608 C19.2506063,24.4271511 19.6138342,24.2766972 19.9925742,24.2766972 L19.9925742,24.2766972 Z" id="Shape" fill="#BAE7FF"></path>
            <path d="M9.99628708,25.7047383 C9.99628708,26.4700303 10.4045485,27.177194 11.0673091,27.5598432 C11.7300697,27.9424924 12.5466275,27.9424924 13.2093881,27.5598432 C13.8721487,27.177194 14.2804101,26.4700303 14.2804101,25.7047383 C14.2804101,24.9394462 13.8721487,24.2322825 13.2093881,23.8496333 C12.5466275,23.4669841 11.7300697,23.4669841 11.0673091,23.8496333 C10.4045485,24.2322825 9.99628708,24.9394462 9.99628708,25.7047383 L9.99628708,25.7047383 Z" id="Path" fill="#BAE7FF"></path>
        </g>
    </g>
</svg>