<?xml version="1.0" encoding="UTF-8"?>
<svg width="50px" height="50px" viewBox="0 0 50 50" version="1.1" xmlns="http://www.w3.org/2000/svg" xmlns:xlink="http://www.w3.org/1999/xlink">
    <!-- Generator: Sketch 57.1 (83088) - https://sketch.com -->
    <title>Artboard Copy 9</title>
    <desc>Created with Sketch.</desc>
    <g id="Artboard-Copy-9" stroke="none" stroke-width="1" fill="none" fill-rule="evenodd">
        <g id="track-copy" transform="translate(3.000000, 4.000000)" fill-rule="nonzero">
            <path d="M0.0135655283,29.3286306 C0.0135655283,34.7228877 9.48820257,39.0957971 21.1757597,39.0957971 C32.8633168,39.0957971 42.3379538,34.7228877 42.3379538,29.3286306 C42.3379538,23.9343735 32.8633168,19.5614641 21.1757597,19.5614641 C9.48820257,19.5614641 0.0135655283,23.9343735 0.0135655283,29.3286306 Z" id="Path" fill="#40A9FF"></path>
            <path d="M0.0135655283,19.5614641 C0.0135655283,24.9557212 9.48820257,29.3286306 21.1757597,29.3286306 C32.8633168,29.3286306 42.3379538,24.9557212 42.3379538,19.5614641 C42.3379538,14.167207 32.8633168,9.79429757 21.1757597,9.79429757 C9.48820257,9.79429757 0.0135655283,14.167207 0.0135655283,19.5614641 Z" id="Path" fill="#BAE7FF"></path>
            <path d="M0.0135655283,9.79429757 C0.0135655283,15.1885547 9.48820257,19.5614641 21.1757597,19.5614641 C32.8633168,19.5614641 42.3379538,15.1885547 42.3379538,9.79429757 C42.3379538,4.40004046 32.8633168,0.0271310565 21.1757597,0.0271310565 C9.48820257,0.0271310565 0.0135655283,4.40004046 0.0135655283,9.79429757 Z" id="Path" fill="#40A9FF"></path>
            <path d="M22.8036208,30.9564917 C22.8036208,34.4459643 24.6652321,37.6703699 27.687204,39.4151062 C30.7091758,41.1598425 34.4323987,41.1598425 37.4543706,39.4151062 C40.4763425,37.6703699 42.3379538,34.4459643 42.3379538,30.9564917 C42.3379538,25.5622346 37.9650444,21.1893252 32.5707873,21.1893252 C27.1765302,21.1893252 22.8036208,25.5622346 22.8036208,30.9564917 L22.8036208,30.9564917 Z" id="Path" fill="#1890FF"></path>
            <path d="M24.4314818,30.9564917 C24.4314818,33.8643855 25.9828246,36.5513902 28.5011345,38.0053371 C31.0194444,39.4592841 34.1221302,39.4592841 36.6404401,38.0053371 C39.15875,36.5513902 40.7100927,33.8643855 40.7100927,30.9564917 C40.7100927,28.0485979 39.15875,25.3615932 36.6404401,23.9076463 C34.1221302,22.4536994 31.0194444,22.4536994 28.5011345,23.9076463 C25.9828246,25.3615932 24.4314818,28.0485979 24.4314818,30.9564917 L24.4314818,30.9564917 Z" id="Path" fill="#BAE7FF"></path>
            <path d="M29.3150651,30.9564917 C29.3150651,32.7545774 30.7727016,34.2122139 32.5707873,34.2122139 C34.368873,34.2122139 35.8265095,32.7545774 35.8265095,30.9564917 C35.8265095,29.158406 34.368873,27.7007695 32.5707873,27.7007695 C30.7727016,27.7007695 29.3150651,29.158406 29.3150651,30.9564917 L29.3150651,30.9564917 Z" id="Path" fill="#1890FF"></path>
            <path d="M32.4080012,37.4679361 L32.5707873,37.4679361 C32.8963595,37.4679361 33.2219317,37.7935083 33.2219317,38.1190805 L33.2219317,41.5375888 C33.2219317,41.863161 32.8963595,42.1887332 32.5707873,42.1887332 L32.4080012,42.1887332 C32.0824289,42.1887332 31.7568568,41.863161 31.7568568,41.5375888 L31.7568568,38.1190805 C31.7568568,37.7935083 32.082429,37.4679361 32.4080012,37.4679361 Z M32.4080012,19.5614641 L32.5707873,19.5614641 C32.8963595,19.5614641 33.2219317,19.8870363 33.2219317,20.2126085 L33.2219317,23.6311168 C33.2219317,23.956689 32.8963595,24.2822613 32.5707873,24.2822613 L32.4080012,24.2822613 C32.0824289,24.2822613 31.7568568,23.956689 31.7568568,23.6311168 L31.7568568,20.2126085 C31.7568568,19.8870363 32.082429,19.5614641 32.4080012,19.5614641 Z M39.0822316,31.1192778 L39.0822316,30.9564917 C39.0822316,30.6309195 39.4078039,30.3053473 39.7333761,30.3053473 L43.1518844,30.3053473 C43.4774566,30.3053473 43.8030288,30.6309195 43.8030288,30.9564917 L43.8030288,31.1192778 C43.8030288,31.4448501 43.4774566,31.7704222 43.1518844,31.7704222 L39.7333761,31.7704222 C39.4078039,31.7704222 39.0822316,31.44485 39.0822316,31.1192778 Z M21.1757597,31.1192778 L21.1757597,30.9564917 C21.1757597,30.6309195 21.5013319,30.3053473 21.8269041,30.3053473 L25.2454124,30.3053473 C25.5709846,30.3053473 25.8965568,30.6309195 25.8965568,30.9564917 L25.8965568,31.1192778 C25.8965568,31.4448501 25.5709846,31.7704222 25.2454124,31.7704222 L21.8269041,31.7704222 C21.5013319,31.7704222 21.1757597,31.44485 21.1757597,31.1192778 Z" id="Shape" fill="#1890FF"></path>
        </g>
    </g>
</svg>