<?xml version="1.0" encoding="UTF-8"?>
<svg width="50px" height="50px" viewBox="0 0 50 50" version="1.1" xmlns="http://www.w3.org/2000/svg" xmlns:xlink="http://www.w3.org/1999/xlink">
    <!-- Generator: Sketch 57.1 (83088) - https://sketch.com -->
    <title>Artboard Copy 3</title>
    <desc>Created with Sketch.</desc>
    <g id="Artboard-Copy-3" stroke="none" stroke-width="1" fill="none" fill-rule="evenodd">
        <g id="xinshenqing--copy" transform="translate(3.000000, 6.000000)" fill-rule="nonzero">
            <path d="M32.6052277,29.8080357 L9.00433482,29.8080357 C5.77799554,29.8571429 3.12620982,27.2790179 3.07710268,24.0526786 L3.07710268,5.81428571 C3.12129911,2.58794643 5.76817411,0.00982142857 8.99451339,0.0491071429 L32.6052277,0.0491071429 C35.831567,8.25728375e-16 38.4833527,2.578125 38.5324598,5.80446429 L38.5324598,24.0477679 C38.4882634,27.2741071 35.8364777,29.8522321 32.6101384,29.8080357 L32.6052277,29.8080357 Z" id="Path" fill="#BBDFFF"></path>
            <path d="M36.519067,5.02857143 C32.9735312,7.24330357 29.7913884,9.99821429 27.0904955,13.1852679 L23.4172812,10.3125 L21.7967455,11.61875 L28.1413884,18.0714286 C30.2480848,13.4946429 33.2239777,9.36964286 36.9021027,5.92723214 L36.5092455,5.02857143 L36.519067,5.02857143 Z" id="Path" fill="#FFFFFF"></path>
            <path d="M8.83737054,4.35089286 L21.9047813,4.35089286 C22.5431741,4.35089286 23.0587991,4.86651786 23.0587991,5.50491071 C23.0587991,6.14330357 22.5431741,6.65892857 21.9047813,6.65892857 L8.83737054,6.65892857 C8.19897768,6.65892857 7.68335268,6.14330357 7.68335268,5.50491071 C7.68826339,4.86651786 8.20388839,4.35089286 8.83737054,4.35089286 L8.83737054,4.35089286 Z M8.83737054,12.0361607 L18.8306741,12.0361607 C19.469067,12.0361607 19.984692,12.5517857 19.984692,13.1901786 C19.984692,13.8285714 19.469067,14.3441964 18.8306741,14.3441964 L8.83737054,14.3441964 C8.19897768,14.3441964 7.68335268,13.8285714 7.68335268,13.1901786 C7.68826339,12.5566964 8.20388839,12.0361607 8.83737054,12.0361607 Z" id="Shape" fill="#E9F5FF"></path>
            <path d="M43.7771027,22.1227679 C42.7949598,20.1535714 40.334692,20.1535714 38.856567,20.6446429 L34.4271027,21.6267857 C34.4025491,23.16875 33.6806741,24.6174107 32.4579062,25.5602679 C29.506567,28.0205357 24.0949598,28.5116071 20.1614777,28.5116071 L15.7320134,28.5116071 C14.7498705,28.5116071 14.2538884,27.5294643 14.7498705,27.0334821 C14.7498705,26.0513393 15.7320134,25.5553571 16.2279955,26.0513393 C19.1793348,26.5424107 27.5422812,26.5424107 30.4936205,24.0821429 C31.4757634,22.6040179 31.9717455,22.1129464 31.9717455,21.1308036 C31.0436205,20.2370536 29.815942,19.7116071 28.5293348,19.6526786 L0.985138393,19.6526786 C0.459691964,19.6870536 0.0373705357,20.109375 0.00299553571,20.6348214 L0.00299553571,30.9669643 C0.0373705357,31.4924107 0.459691964,31.9147321 0.985138393,31.9491071 C8.36594196,34.409375 17.7110313,37.3607143 23.1226384,37.3607143 L25.0918348,37.3607143 C28.5342455,36.8696429 40.3396027,28.9977679 42.7998705,27.0285714 C43.9146027,25.6633929 44.2829063,23.821875 43.7771027,22.1227679 Z" id="Path" fill="#72AEFD"></path>
        </g>
    </g>
</svg>