<?xml version="1.0" encoding="UTF-8"?>
<svg width="20px" height="20px" viewBox="0 0 20 20" version="1.1" xmlns="http://www.w3.org/2000/svg" xmlns:xlink="http://www.w3.org/1999/xlink">
    <!-- Generator: Sketch 57.1 (83088) - https://sketch.com -->
    <title>Artboard Copy</title>
    <desc>Created with Sketch.</desc>
    <g id="Artboard-Copy" stroke="none" stroke-width="1" fill="none" fill-rule="evenodd">
        <path d="M19.1034956,19.6992042 L0.807952787,19.6992042 C0.361859233,19.6992042 0,19.3366964 0,18.8919926 C0,18.4465475 0.361840703,18.0847809 0.778917331,18.0847809 L2.24518006,18.0847809 L2.22967101,8.64992542 C2.22967101,7.6216404 2.43316008,6.6210382 2.83409767,5.67569045 C3.21952621,4.76662312 3.77136663,3.94868303 4.47483254,3.24519859 C5.17831698,2.54173268 5.99633119,1.98985519 6.90530587,1.60440813 C7.84802246,1.20347054 8.84793908,1 9.87690968,1 C10.9057876,1 11.8774841,1.20347054 12.8208121,1.60440813 C13.7291383,1.98985519 14.5471154,2.54173268 15.2506369,3.24519859 C15.9540843,3.94868303 16.5066103,4.76662312 16.8913533,5.67569045 C17.292995,6.61835145 17.4958355,7.61895365 17.4958355,8.64518191 L17.4958355,18.0847624 L19.0738486,18.0847624 C19.5482179,18.0847624 19.9107998,18.446529 19.9107998,18.891974 C19.9107998,19.3366964 19.5481994,19.6992042 19.1034956,19.6992042 L19.1034956,19.6992042 Z M14.111843,4.38591956 C12.9690468,3.24314183 11.4839212,2.61245912 9.8795779,2.61245912 C8.2752161,2.61245912 6.76181476,3.24314183 5.61899997,4.38591956 C4.47483254,5.530087 3.84416836,7.04354392 3.84416836,8.64720161 L3.85224714,18.0847624 L15.8813197,18.0847624 L15.8867117,8.64720161 C15.8867117,7.04354392 15.256029,5.530087 14.111843,4.38591956 Z M9.56761815,11.3903388 L7.44171137,11.3903388 L10.361396,5.91284731 L10.361396,10.3749131 L12.413834,10.3749131 L9.56761815,15.6488785 L9.56761815,11.3903388 Z" id="Shape-Copy" fill="#E8AB55" fill-rule="nonzero"></path>
    </g>
</svg>