<?xml version="1.0" encoding="UTF-8"?>
<svg width="20px" height="20px" viewBox="0 0 20 20" version="1.1" xmlns="http://www.w3.org/2000/svg" xmlns:xlink="http://www.w3.org/1999/xlink">
    <!-- Generator: Sketch 57.1 (83088) - https://sketch.com -->
    <title>Artboard Copy 15</title>
    <desc>Created with Sketch.</desc>
    <g id="Artboard-Copy-15" stroke="none" stroke-width="1" fill="none" fill-rule="evenodd">
        <g id="wodexuesheng" fill="#E7A343" fill-rule="nonzero">
            <path d="M9.9721971,1.25463657 L1.24820409,4.67072008 L9.9721971,8.08680357 L18.7373175,4.67072008 L9.97095083,1.25463657 L9.9721971,1.25463657 Z M10.4208596,0.0862733399 L19.1872263,3.50235685 C19.6670983,3.68931005 19.9833904,4.1537147 19.9833904,4.67134689 C19.9833904,5.18897907 19.6670983,5.65338372 19.1872263,5.84033692 L10.4208596,9.25642041 C10.130647,9.36978325 9.8087621,9.36978325 9.51854946,9.25642041 L0.795802746,5.8378297 C0.316774355,5.65043898 0.00124424033,5.18646587 0.00124424033,4.66946646 C0.00124424033,4.15246706 0.316774355,3.68849394 0.795802746,3.50110323 L9.51979575,0.0850197453 C9.80963876,-0.0280187993 10.1310166,-0.0280187993 10.4208596,0.0850197453 L10.4208596,0.0862733399 Z" id="Shape"></path>
            <path d="M14.8152595,13.0047102 L16.0615442,13.0047102 L16.0615442,14.4488673 C13.9952042,16.089841 11.9226327,16.2954328 9.84258349,16.2954328 C7.761288,16.2954328 5.67999254,16.089841 3.59869706,14.4488673 L3.59869706,6.7692609 L4.84498179,7.36597861 L4.84498179,13.8120341 C6.22461897,14.7472262 7.64289098,15.0405706 9.84258349,15.0405706 C12.0360446,15.0405706 13.4480852,14.7484798 14.8152595,13.8145414 L14.8152595,13.0047102 L14.8152595,13.0047102 Z M9.84258349,15.0418242 C12.0360446,15.0418242 13.4480852,14.7484798 14.8152595,13.8145414 L14.8152595,13.0047102 L16.0615442,13.0047102 L16.0615442,14.4488673 C13.9952042,16.089841 11.9226327,16.2954328 9.84258349,16.2954328 C7.761288,16.2954328 5.67999254,16.089841 3.59869706,14.4488673 L3.59869706,6.78681144 L4.84498179,7.3634714 L4.84498179,13.8120341 C6.22461897,14.7472262 7.64289098,15.0405706 9.84258349,15.0405706 L9.84258349,15.0418242 Z M10.3797322,5.71873689 C10.0641569,5.59402161 9.90562655,5.23839846 10.0229665,4.91842253 C10.1403064,4.59844659 10.4904489,4.43156019 10.8109467,4.54285199 L16.2036207,6.54110413 L16.2036207,8.92672135 C16.2036207,9.27289581 15.9246303,9.55352566 15.5804783,9.55352566 C15.2363263,9.55352566 14.957336,9.27289581 14.957336,8.92672135 L14.957336,7.41486934 L10.3797322,5.71748327 L10.3797322,5.71873689 Z" id="Shape"></path>
            <path d="M15.4321704,14.1668054 L15.7287862,14.1668054 L15.7400028,14.08156 C15.6821746,14.0510928 15.6285469,14.0131642 15.5804783,13.9687352 C15.5324097,14.0131642 15.478782,14.0510928 15.4209539,14.08156 L15.4334167,14.1668054 L15.4321704,14.1668054 Z M15.1205993,18.738716 L16.0416037,18.738716 L15.5804783,15.2787562 L15.119353,18.738716 L15.1205993,18.738716 Z M15.0744867,12.9131963 L16.0864699,12.9131963 C16.3365118,12.9128656 16.5481146,13.0989051 16.5812449,13.348199 L17.3900837,19.42444 C17.4091435,19.5678556 17.3656866,19.7125622 17.2708788,19.8213791 C17.176071,19.930196 17.0391546,19.9925152 16.8953087,19.9923251 L14.2656479,19.9923251 C14.121802,19.9925152 13.9848857,19.930196 13.8900779,19.8213791 C13.7952701,19.7125622 13.7518132,19.5678556 13.7708729,19.42444 L14.580958,13.348199 C14.6140256,13.0993778 14.824919,12.9134938 15.0744867,12.9131963 L15.0744867,12.9131963 Z" id="Shape"></path>
            <path d="M15.5804783,13.6064423 C14.4463592,13.6064423 13.5988856,12.5032667 13.5988856,11.2095426 C13.5988856,9.91581855 14.4463592,8.81264296 15.5804783,8.81264296 C16.7145974,8.81264296 17.562071,9.91581855 17.562071,11.2095426 C17.562071,12.5032667 16.7145974,13.6064423 15.5804783,13.6064423 Z M15.5804783,12.3528337 C15.946886,12.3528337 16.3157863,11.871448 16.3157863,11.2095426 C16.3157863,10.5488909 15.946886,10.0662516 15.5804783,10.0662516 C15.2140706,10.0662516 14.8451703,10.5488909 14.8451703,11.2095426 C14.8451703,11.871448 15.2140706,12.3528337 15.5804783,12.3528337 Z" id="Shape"></path>
        </g>
    </g>
</svg>