<?xml version="1.0" encoding="UTF-8"?>
<svg width="20px" height="20px" viewBox="0 0 20 20" version="1.1" xmlns="http://www.w3.org/2000/svg" xmlns:xlink="http://www.w3.org/1999/xlink">
    <!-- Generator: Sketch 57.1 (83088) - https://sketch.com -->
    <title>11</title>
    <desc>Created with Sketch.</desc>
    <g id="11" stroke="none" stroke-width="1" fill="none" fill-rule="evenodd">
        <g id="yanjing" transform="translate(0.000000, 4.000000)" fill="#000000" fill-rule="nonzero">
            <path d="M19.8560061,5.85579576 C18.7436607,4.4749531 14.7481668,0 9.99832376,0 C5.2484807,0 1.27855802,4.4749531 0.140641381,5.85579576 C-0.0463479449,6.08934535 -0.0463479449,6.42134494 0.140641381,6.65489453 C1.25937966,8.03573719 5.25487349,12.5106903 9.99832376,12.5106903 C14.741774,12.5106903 18.7436607,8.03573719 19.8560061,6.65489453 C20.0429955,6.42134494 20.0429955,6.08934535 19.8560061,5.85579576 Z M9.99832376,11.2257395 C6.16264969,11.2257395 2.81922044,7.81838233 1.47034173,6.25214875 C2.81922045,4.68591516 6.19461363,1.27855802 9.99832376,1.27855802 C13.8020339,1.27855802 17.1774271,4.68591516 18.5390914,6.25214875 C17.1774271,7.81838233 13.8020339,11.2257395 9.99832376,11.2257395 Z" id="Shape"></path>
            <path d="M9.96635982,3.19639506 C8.31048942,3.19639506 6.96814125,4.53874324 6.96814125,6.19461363 C6.96814125,7.85048403 8.31048942,9.19283221 9.96635982,9.19283221 C11.6222302,9.19283221 12.9645784,7.85048403 12.9645784,6.19461363 C12.9645784,5.39943663 12.6486956,4.636828 12.0864205,4.07455295 C11.5241454,3.5122779 10.7615368,3.19639506 9.96635982,3.19639506 Z M9.96635982,7.91427418 C9.27082205,7.91427419 8.64377141,7.49529235 8.37760062,6.85269924 C8.11142984,6.21010614 8.25855669,5.47044948 8.75037616,4.97863 C9.24219563,4.48681053 9.9818523,4.33968367 10.6244454,4.60585445 C11.2670385,4.87202523 11.6860204,5.49907587 11.6860204,6.19461363 C11.6894278,6.65290721 11.5097552,7.09360141 11.1868862,7.4188709 C10.8640173,7.74414039 10.4246661,7.92705977 9.96635982,7.92705977 L9.96635982,7.91427418 Z" id="Shape"></path>
        </g>
    </g>
</svg>