<?xml version="1.0" encoding="UTF-8"?>
<svg width="20px" height="20px" viewBox="0 0 20 20" version="1.1" xmlns="http://www.w3.org/2000/svg" xmlns:xlink="http://www.w3.org/1999/xlink">
    <!-- Generator: Sketch 52.4 (67378) - http://www.bohemiancoding.com/sketch -->
    <title>Artboard Copy 18</title>
    <desc>Created with Sketch.</desc>
    <g id="Artboard-Copy-18" stroke="none" stroke-width="1" fill="none" fill-rule="evenodd">
        <g id="chaxun" fill="#E7A343" fill-rule="nonzero">
            <path d="M19.6887124,18.1957882 L15.0735018,13.5806017 C16.1812274,12.1556919 16.841083,10.3653189 16.841083,8.42040915 C16.841083,3.7732852 13.0741998,0.00539109507 8.42512635,0.00539109507 C3.77795427,0.00539109507 0.0110950662,3.7732852 0.0110950662,8.42040915 C0.0110950662,13.0685439 3.77800241,16.8354031 8.42512635,16.8354031 C10.3704934,16.8354031 12.1611552,16.1754994 13.5862575,15.0677738 L18.2015162,19.6830325 C18.4064019,19.8879904 18.6757641,19.9914079 18.9451023,19.9914079 C19.2144404,19.9914079 19.4838026,19.8879904 19.6887124,19.6830325 C20.1005295,19.2722022 20.1005295,18.6066667 19.6887124,18.1958123 L19.6887124,18.1957882 Z M2.11504212,8.42040915 C2.11509025,4.94040915 4.94512635,2.10941035 8.42510229,2.10941035 C11.9070517,2.10941035 14.7370638,4.94043321 14.7370638,8.42040915 C14.7370638,11.9013718 11.9070517,14.7314561 8.42510229,14.7314561 C4.94510229,14.7314561 2.11504212,11.9013718 2.11504212,8.42040915 Z" id="Shape"></path>
        </g>
    </g>
</svg>