<?xml version="1.0" encoding="UTF-8"?>
<svg width="858px" height="40px" viewBox="0 0 858 40" version="1.1" xmlns="http://www.w3.org/2000/svg" xmlns:xlink="http://www.w3.org/1999/xlink">
    <!-- Generator: Sketch 52.4 (67378) - http://www.bohemiancoding.com/sketch -->
    <title>Artboard Copy 35</title>
    <desc>Created with Sketch.</desc>
    <g id="Artboard-Copy-35" stroke="none" stroke-width="1" fill="none" fill-rule="evenodd">
        <path id="Line-2-Copy-28" d="M388.867188,20.3319767 L322.492188,20.3319767 L321.992188,20.3319767 L321.992188,19.3319767 L322.492188,19.3319767 L388.867188,19.3319767 L388.867187,15.3319767 L397.867187,19.8319767 L388.867187,24.3319767 L388.867187,20.3319767 Z" fill="#979797" fill-rule="nonzero"></path>
        <path id="Line-2-Copy-29" d="M518.867187,20.3319767 L452.492188,20.3319767 L451.992188,20.3319767 L451.992188,19.3319767 L452.492188,19.3319767 L518.867187,19.3319767 L518.867187,15.3319767 L527.867187,19.8319767 L518.867187,24.3319767 L518.867187,20.3319767 Z" fill="#979797" fill-rule="nonzero"></path>
        <path id="Line-2-Copy-31" d="M790.867188,20.3319767 L724.492188,20.3319767 L723.992188,20.3319767 L723.992188,19.3319767 L724.492188,19.3319767 L790.867188,19.3319767 L790.867187,15.3319767 L799.867187,19.8319767 L790.867187,24.3319767 L790.867187,20.3319767 Z" fill="#979797" fill-rule="nonzero"></path>
        <path id="Line-2-Copy-33" d="M656.867187,20.3319767 L590.492188,20.3319767 L589.992188,20.3319767 L589.992188,19.3319767 L590.492188,19.3319767 L656.867187,19.3319767 L656.867187,15.3319767 L665.867187,19.8319767 L656.867187,24.3319767 L656.867187,20.3319767 Z" fill="#979797" fill-rule="nonzero"></path>
        <g id="岗位-copy-23" transform="translate(542.000000, 0.000000)" fill="#28C6C0" fill-rule="nonzero">
            <path d="M17.777845,26.4569391 C18.5481466,26.4569391 19.1727104,27.0640397 19.1727104,27.8122975 C19.1727104,28.5609123 18.5481018,29.1676036 17.777845,29.1676036 C17.0075435,29.1676036 16.3830693,28.5609123 16.3830693,27.8122975 C16.3827108,27.0639874 17.0074986,26.4569391 17.777845,26.4569391 Z M17.777845,39.5238095 C17.777845,39.5238095 14.2671957,38.2379369 14.2671957,36.394916 C14.2671957,35.0907988 15.5937585,32.1469362 16.6162624,30.0717971 C16.9662536,30.2420148 17.3597395,30.340204 17.777845,30.340204 C18.195861,30.340204 18.589302,30.2420671 18.9392395,30.0717971 C19.9616538,32.1469362 21.288351,35.0907988 21.288351,36.394916 C21.28836,38.2379456 17.777845,39.5238095 17.777845,39.5238095 Z M33.9213938,39.508108 C33.0204202,39.508108 32.2877876,38.795686 32.2877876,37.9202743 C32.2877876,33.4893623 30.2064462,29.4029005 26.5781651,26.7086516 C25.8620144,26.1768018 25.7249612,25.1780333 26.2719911,24.482262 C26.8171389,23.787562 27.8447872,23.65318 28.5613502,24.1844028 L28.5616728,24.1851604 C33.0064567,27.4857 35.5555556,32.4917085 35.5555556,37.9202743 C35.5555556,38.7957208 34.82269,39.508108 33.9213938,39.508108 Z M17.777845,0.476190476 C11.1542086,0.476190476 5.76560181,5.71253201 5.76560181,12.1486533 C5.76560181,16.079493 7.84795605,19.7464369 11.1876474,21.8882053 C4.52392206,24.4864509 0,30.8610287 0,37.9203179 C0,38.7957208 0.733053812,39.5081515 1.63407217,39.5081515 C2.53509052,39.5081515 3.26782169,38.7957295 3.26782169,37.9203179 C3.26782169,30.1458896 9.77722317,23.8205413 17.7778987,23.8208113 C24.4016696,23.8208113 29.7904198,18.5848268 29.7904198,12.148662 C29.7903661,5.71248844 24.4016159,0.476190476 17.777845,0.476190476 Z M17.777845,20.6451875 C12.9563888,20.6451875 9.03369242,16.8334636 9.03369242,12.1483833 C9.03369242,7.46344235 12.9563799,3.651762 17.777845,3.651762 C22.5996687,3.651762 26.5224099,7.46348588 26.5224099,12.1483833 C26.5224099,16.8334636 22.5996777,20.6451875 17.777845,20.6451875 Z" id="Shape"></path>
        </g>
        <g id="岗位-copy-24" transform="translate(408.000000, 0.000000)" fill="#28C6C0" fill-rule="nonzero">
            <path d="M17.5000662,26.4569391 C18.2583318,26.4569391 18.8731368,27.0640397 18.8731368,27.8122975 C18.8731368,28.5609123 18.2582877,29.1676036 17.5000662,29.1676036 C16.7418006,29.1676036 16.1270838,28.5609123 16.1270838,27.8122975 C16.1267309,27.0639874 16.7417565,26.4569391 17.5000662,26.4569391 Z M17.5000662,39.5238095 C17.5000662,39.5238095 14.0442707,38.2379369 14.0442707,36.394916 C14.0442707,35.0907988 15.350106,32.1469362 16.3566333,30.0717971 C16.7011559,30.2420148 17.0884935,30.340204 17.5000662,30.340204 C17.9115507,30.340204 18.2988442,30.2420671 18.6433139,30.0717971 C19.649753,32.1469362 20.9557205,35.0907988 20.9557205,36.394916 C20.9557293,38.2379456 17.5000662,39.5238095 17.5000662,39.5238095 Z M33.391372,39.508108 C32.5044761,39.508108 31.783291,38.795686 31.783291,37.9202743 C31.783291,33.4893623 29.7344704,29.4029005 26.1628813,26.7086516 C25.4579204,26.1768018 25.3230086,25.1780333 25.8614912,24.482262 C26.3981211,23.787562 27.4097124,23.65318 28.1150791,24.1844028 L28.1153967,24.1851604 C32.4907309,27.4857 35,32.4917085 35,37.9202743 C35,38.7957208 34.2785855,39.508108 33.391372,39.508108 Z M17.5000662,0.476190476 C10.9799241,0.476190476 5.67551428,5.71253201 5.67551428,12.1486533 C5.67551428,16.079493 7.72533173,19.7464369 11.0128404,21.8882053 C4.45323577,24.4864509 0,30.8610287 0,37.9203179 C0,38.7957208 0.721599846,39.5081515 1.60853979,39.5081515 C2.49547973,39.5081515 3.21676198,38.7957295 3.21676198,37.9203179 C3.21676198,30.1458896 9.62445406,23.8205413 17.5001191,23.8208113 C24.0203935,23.8208113 29.3249444,18.5848268 29.3249444,12.148662 C29.3248916,5.71248844 24.0203407,0.476190476 17.5000662,0.476190476 Z M17.5000662,20.6451875 C12.7539452,20.6451875 8.89254097,16.8334636 8.89254097,12.1483833 C8.89254097,7.46344235 12.7539364,3.651762 17.5000662,3.651762 C22.2465489,3.651762 26.1079973,7.46348588 26.1079973,12.1483833 C26.1079972,16.8334636 22.2465577,20.6451875 17.5000662,20.6451875 Z" id="Shape"></path>
        </g>
        <g id="岗位-copy-25" transform="translate(275.000000, 0.000000)" fill="#28C6C0" fill-rule="nonzero">
            <path d="M17.5000662,26.4569391 C18.2583318,26.4569391 18.8731368,27.0640397 18.8731368,27.8122975 C18.8731368,28.5609123 18.2582877,29.1676036 17.5000662,29.1676036 C16.7418006,29.1676036 16.1270838,28.5609123 16.1270838,27.8122975 C16.1267309,27.0639874 16.7417565,26.4569391 17.5000662,26.4569391 Z M17.5000662,39.5238095 C17.5000662,39.5238095 14.0442707,38.2379369 14.0442707,36.394916 C14.0442707,35.0907988 15.350106,32.1469362 16.3566333,30.0717971 C16.7011559,30.2420148 17.0884935,30.340204 17.5000662,30.340204 C17.9115507,30.340204 18.2988442,30.2420671 18.6433139,30.0717971 C19.649753,32.1469362 20.9557205,35.0907988 20.9557205,36.394916 C20.9557293,38.2379456 17.5000662,39.5238095 17.5000662,39.5238095 Z M33.391372,39.508108 C32.5044761,39.508108 31.783291,38.795686 31.783291,37.9202743 C31.783291,33.4893623 29.7344704,29.4029005 26.1628813,26.7086516 C25.4579204,26.1768018 25.3230086,25.1780333 25.8614912,24.482262 C26.3981211,23.787562 27.4097124,23.65318 28.1150791,24.1844028 L28.1153967,24.1851604 C32.4907309,27.4857 35,32.4917085 35,37.9202743 C35,38.7957208 34.2785855,39.508108 33.391372,39.508108 Z M17.5000662,0.476190476 C10.9799241,0.476190476 5.67551428,5.71253201 5.67551428,12.1486533 C5.67551428,16.079493 7.72533173,19.7464369 11.0128404,21.8882053 C4.45323577,24.4864509 0,30.8610287 0,37.9203179 C0,38.7957208 0.721599846,39.5081515 1.60853979,39.5081515 C2.49547973,39.5081515 3.21676198,38.7957295 3.21676198,37.9203179 C3.21676198,30.1458896 9.62445406,23.8205413 17.5001191,23.8208113 C24.0203935,23.8208113 29.3249444,18.5848268 29.3249444,12.148662 C29.3248916,5.71248844 24.0203407,0.476190476 17.5000662,0.476190476 Z M17.5000662,20.6451875 C12.7539452,20.6451875 8.89254097,16.8334636 8.89254097,12.1483833 C8.89254097,7.46344235 12.7539364,3.651762 17.5000662,3.651762 C22.2465489,3.651762 26.1079973,7.46348588 26.1079973,12.1483833 C26.1079972,16.8334636 22.2465577,20.6451875 17.5000662,20.6451875 Z" id="Shape"></path>
        </g>
        <g id="退出1-copy-9" transform="translate(811.000000, 0.000000)" fill="#28C6C0" fill-rule="nonzero">
            <path d="M19.4950482,40 C16.8656679,40 14.3105637,39.5132043 11.9040122,38.5493489 C9.58164043,37.6195692 7.49695277,36.290617 5.70937024,34.5965681 C3.91683596,32.9025192 2.5154901,30.9261288 1.53009142,28.7306803 C0.514982224,26.4573445 0,24.0379701 0,21.5455762 C0,18.5663868 0.772473337,15.6066691 2.23324022,12.9828405 C3.64448959,10.451503 5.69451498,8.22684678 8.16543931,6.55226968 C8.84878111,6.08494584 9.80446927,6.2358525 10.2946927,6.88329074 C10.7849162,7.53072898 10.6264601,8.43130096 9.94311833,8.89375685 C7.85843068,10.3103322 6.12531742,12.1893635 4.9368969,14.3263965 C3.68905536,16.5705245 3.05523108,18.9947669 3.05523108,21.5455762 C3.05523108,25.7028112 4.76853733,29.6166484 7.87328593,32.5568942 C10.9780345,35.4971401 15.1077958,37.1181696 19.5,37.1181696 C23.8922042,37.1181696 28.0219655,35.4971401 31.1316658,32.5568942 C34.2413662,29.6166484 35.9497207,25.7076792 35.9497207,21.5455762 C35.9497207,18.9996349 35.3208481,16.5656566 34.0680549,14.3263965 C32.8796343,12.1893635 31.1465211,10.3103322 29.0568817,8.8986248 C28.3735399,8.43616892 28.2150838,7.53559693 28.7053073,6.8881587 C29.1955307,6.24072046 30.1462671,6.0898138 30.8345607,6.55713764 C33.305485,8.23171474 35.3555104,10.4563709 36.7667598,12.9877084 C38.2275267,15.6115371 39,18.5712547 39,21.5504442 C39,24.042838 38.4850178,26.4573445 37.4649568,28.7355483 C36.4845099,30.9309967 35.0782123,32.9073871 33.285678,34.601436 C31.4931437,36.295485 29.4134078,37.6244371 27.0910361,38.5542169 C24.6844845,39.5132043 22.1293804,40 19.4950482,40 Z M19.9555612,19.9732262 C19.1137633,19.9732262 18.4304215,19.330656 18.4304215,18.5323111 L18.4304215,1.44091518 C18.4304215,0.647438238 19.1137633,0 19.9555612,0 C20.7973591,0 21.4807009,0.647438238 21.4807009,1.44091518 L21.4807009,18.5323111 C21.4807009,19.330656 20.7973591,19.9732262 19.9555612,19.9732262 Z" id="Shape"></path>
            <path d="M19.4975487,40 C16.8599623,40 14.3106223,39.513077 11.9083595,38.5488731 C9.5894406,37.6232373 7.50584538,36.2926359 5.7115022,34.595637 C3.9220616,32.9034591 2.515022,30.926841 1.52960402,28.723635 C0.514770585,26.4432928 0,24.0231409 0,21.5306737 C0,18.5464626 0.774607165,15.5815355 2.23557511,12.9589008 C3.64751728,10.4230445 5.69679447,8.1957334 8.16769327,6.52283958 C8.45694532,6.32517778 8.80012571,6.21911534 9.15801383,6.21911534 C9.70710245,6.21911534 10.221873,6.46980836 10.5454431,6.89405809 C10.8101823,7.24599253 10.918039,7.67024226 10.8445003,8.099313 C10.7709617,8.52838375 10.5258328,8.90442329 10.1483344,9.15993733 C8.10395977,10.548391 6.41257071,12.3851995 5.25065996,14.472701 C4.02991829,16.6662649 3.41219359,19.0382066 3.41219359,21.5306737 C3.41219359,25.5996143 5.08397234,29.4226829 8.12357008,32.2960106 C11.1631678,35.1741593 15.2028913,36.7602748 19.5024513,36.7602748 C23.8020113,36.7602748 27.8417348,35.1741593 30.8813325,32.2960106 C33.9209302,29.4226829 35.592709,25.5996143 35.592709,21.5306737 C35.592709,19.0333856 34.9749843,16.6614439 33.7542426,14.472701 C32.5923319,12.3851995 30.8960402,10.548391 28.8565682,9.15993733 C28.4839723,8.90442329 28.2339409,8.52838375 28.1604023,8.09449199 C28.0868636,7.67024226 28.1947203,7.24117151 28.4594595,6.89405809 C28.778127,6.46980836 29.2978001,6.21911534 29.8468887,6.21911534 C30.2047769,6.21911534 30.5430547,6.32517778 30.8323067,6.52283958 C33.3032055,8.20055442 35.3573853,10.4230445 36.7644249,12.9589008 C38.2253928,15.5863565 39,18.5464626 39,21.5306737 C39,24.0231409 38.4852294,26.4432928 37.4654934,28.723635 C36.484978,30.92202 35.0779384,32.8986381 33.2835952,34.595637 C31.4941546,36.2878149 29.4105594,37.6184163 27.0867379,38.5536941 C24.6844752,39.513077 22.1302326,40 19.4975487,40 Z M9.15311125,6.60479691 C8.87856694,6.60479691 8.6089252,6.68675425 8.38340666,6.84102688 C5.9664362,8.48017356 3.95637964,10.6640955 2.57385292,13.1469206 C1.14230044,15.716524 0.387303583,18.6187779 0.387303583,21.5354948 C0.387303583,23.9749307 0.892269013,26.3420513 1.88749214,28.5741834 C2.85329981,30.7291792 4.23092395,32.6624081 5.98114393,34.3256599 C7.7362665,35.9889117 9.78064111,37.290587 12.0554368,38.2017597 C14.4086738,39.1466795 16.9089881,39.6239605 19.4975487,39.6239605 C22.0812068,39.6239605 24.5815211,39.1466795 26.9396606,38.2065807 C29.2193589,37.290587 31.2588309,35.9889117 33.0139535,34.3304809 C34.7690761,32.6672291 36.1467002,30.7340002 37.1076053,28.5790045 C38.1028284,26.3516934 38.6077938,23.9797517 38.6077938,21.5403158 C38.6077938,18.6187779 37.852797,15.7213451 36.4212445,13.1517416 C35.0387178,10.6689165 33.0286612,8.4898156 30.6067882,6.8458479 C30.3812696,6.69157527 30.1165305,6.60961793 29.8419862,6.60961793 C29.415462,6.60961793 29.0183532,6.80245872 28.7683218,7.13028806 C28.5673162,7.39544414 28.4839723,7.71845245 28.5379007,8.03663975 C28.591829,8.36446909 28.7830295,8.65373026 29.067379,8.84657105 C31.1607794,10.2687718 32.8962916,12.1489695 34.0876179,14.2895022 C35.337775,16.5312764 35.97511,18.9707123 35.97511,21.5306737 C35.97511,25.7056768 34.259208,29.6251657 31.1460717,32.5708087 C28.0329353,35.5164517 23.8951603,37.1411354 19.4975487,37.1411354 C15.0950346,37.1411354 10.9621622,35.5164517 7.84902577,32.5708087 C4.73588938,29.6251657 3.01998743,25.7008557 3.01998743,21.5306737 C3.01998743,18.9755333 3.65241986,16.5360974 4.90747957,14.2895022 C6.09880578,12.1489695 7.83431804,10.2687718 9.92281584,8.84175003 C10.2120679,8.64890924 10.3983658,8.35964807 10.4522942,8.03663975 C10.5062225,7.71363143 10.4277813,7.39062312 10.2267756,7.12546704 C9.98164676,6.7976377 9.57963545,6.60479691 9.15311125,6.60479691 Z M19.9534884,20.1663252 C19.0121936,20.1663252 18.2473916,19.4383512 18.2473916,18.5464626 L18.2473916,1.6198626 C18.2473916,0.727973966 19.0121936,0 19.9534884,0 C20.8947832,0 21.6595852,0.727973966 21.6595852,1.6198626 L21.6595852,18.5464626 C21.6595852,19.4383512 20.8947832,20.1663252 19.9534884,20.1663252 Z M19.9534884,0.380860552 C19.227907,0.380860552 18.6395977,0.935277811 18.6395977,1.6198626 L18.6395977,18.5464626 C18.6395977,19.2262263 19.227907,19.7806436 19.9534884,19.7806436 C20.6790698,19.7806436 21.2722816,19.2262263 21.2722816,18.5464626 L21.2722816,1.6198626 C21.2722816,0.935277811 20.6790698,0.380860552 19.9534884,0.380860552 Z" id="Shape"></path>
        </g>
        <g id="视频-copy-7" transform="translate(8.000000, 1.000000)" fill="#28C6C0" fill-rule="nonzero">
            <path d="M31.5789474,38.3673469 L8.42105263,38.3673469 C3.77052632,38.3673469 0,34.5497959 0,29.8412698 L1.46081977e-15,8.5260771 C1.46081977e-15,3.81755102 3.77052632,0 8.42105263,0 L31.5789474,0 C36.2294737,0 40,3.81755102 40,8.5260771 L40,29.8412698 C40,34.5497959 36.2294737,38.3673469 31.5789474,38.3673469 Z M37.8947368,9.80498866 C37.8947368,5.56752834 34.5010526,2.13151927 30.3157895,2.13151927 L9.68421053,2.13151927 C5.49894737,2.13151927 2.10526316,5.56752834 2.10526316,9.80498866 L2.10526316,28.5623583 C2.10526316,32.7998186 5.49894737,36.2358277 9.68421053,36.2358277 L30.3157895,36.2358277 C34.5010526,36.2358277 37.8947368,32.7998186 37.8947368,28.5623583 L37.8947368,9.80498866 Z M14.7368421,10.7002268 L27.3684211,19.1836735 L14.7368421,27.6671202 L14.7368421,10.7002268 Z" id="Shape"></path>
        </g>
        <path id="Line-2-Copy-34" d="M128.867187,20.3319767 L62.4921875,20.3319767 L61.9921875,20.3319767 L61.9921875,19.3319767 L62.4921875,19.3319767 L128.867187,19.3319767 L128.867187,15.3319767 L137.867187,19.8319767 L128.867187,24.3319767 L128.867187,20.3319767 Z" fill="#979797" fill-rule="nonzero"></path>
        <path id="Line-2-Copy-35" d="M258.867187,20.3319767 L192.492188,20.3319767 L191.992188,20.3319767 L191.992188,19.3319767 L192.492188,19.3319767 L258.867187,19.3319767 L258.867187,15.3319767 L267.867187,19.8319767 L258.867187,24.3319767 L258.867187,20.3319767 Z" fill="#979797" fill-rule="nonzero"></path>
        <g id="岗位-copy-26" transform="translate(142.000000, 0.000000)" fill="#28C6C0" fill-rule="nonzero">
            <path d="M17.6122106,26.2582583 C18.3921409,26.2582583 19.0245118,26.8708282 19.0245118,27.6258271 C19.0245118,28.3811862 18.3920956,28.9933431 17.6122106,28.9933431 C16.8322803,28.9933431 16.2000002,28.3811862 16.2000002,27.6258271 C16.1996372,26.8707755 16.8322349,26.2582583 17.6122106,26.2582583 Z M17.6122106,34.4204212 C18.3921409,34.4204212 19.0245118,35.0329911 19.0245118,35.78799 C19.0245118,36.5433491 18.3920956,37.1555061 17.6122106,37.1555061 C16.8322803,37.1555061 16.2000002,36.5433491 16.2000002,35.78799 C16.1996372,35.0329384 16.8322349,34.4204212 17.6122106,34.4204212 Z M34.3454112,39.8640369 C33.4331754,39.8640369 32.691385,39.1451967 32.691385,38.2618984 C32.691385,33.7910683 30.5840267,29.6677915 26.9103921,26.9492701 C26.1852896,26.4126289 26.0465232,25.4048624 26.600391,24.7028229 C27.1523531,24.0018643 28.1928471,23.8662717 28.9183671,24.4022803 L28.9186937,24.4030448 C33.4190375,27.7333189 36,32.7844266 36,38.2618984 C36,39.1452318 35.2579736,39.8640369 34.3454112,39.8640369 Z M18.0000681,0.48048048 C11.2936362,0.48048048 5.83767183,5.76399626 5.83767183,12.2581006 C5.83767183,16.2243533 7.9460555,19.9243328 11.327493,22.0853964 C4.58047108,24.7070495 0,31.139056 0,38.2619423 C0,39.1452318 0.742216984,39.8640808 1.65449807,39.8640808 C2.56677915,39.8640808 3.30866946,39.1452406 3.30866946,38.2619423 C3.30866946,30.4174742 9.89943846,24.0351408 18.0001225,24.0354132 C24.7066905,24.0354132 30.1628,18.7522577 30.1628,12.2581094 C30.1627457,5.7639523 24.7066361,0.48048048 18.0000681,0.48048048 Z M18.0000681,20.8311802 C13.1183436,20.8311802 9.14661357,16.9851165 9.14661357,12.2578282 C9.14661357,7.53068057 13.1183346,3.68466076 18.0000681,3.68466076 C22.8821646,3.68466076 26.8539401,7.53072449 26.8539401,12.2578282 C26.85394,16.9851164 22.8821736,20.8311802 18.0000681,20.8311802 Z" id="Shape"></path>
        </g>
        <g id="公司-2-copy-2" transform="translate(673.000000, 2.000000)" fill="#28C6C0" fill-rule="nonzero">
            <path d="M7.06065099,6.97671961 L12.6928798,6.97671961 L12.6928798,11.0980186 L7.06065099,11.0980186 L7.06065099,6.97671961 Z M15.4681653,6.97671961 L21.1003941,6.97671961 L21.1003941,11.0980186 L15.4681653,11.0980186 L15.4681653,6.97671961 Z M7.06065099,13.9256806 L12.6928798,13.9256806 L12.6928798,18.0469795 L7.06065099,18.0469795 L7.06065099,13.9256806 Z M15.4681653,13.9256806 L21.1003941,13.9256806 L21.1003941,18.0469795 L15.4681653,18.0469795 L15.4681653,13.9256806 Z M29.4261607,13.9256806 L32.2014462,13.9256806 L32.2014462,18.0469795 L29.4261607,18.0469795 L29.4261607,13.9256806 Z M29.4261607,20.7944677 L32.2014462,20.7944677 L32.2014462,24.9170569 L29.4261607,24.9170569 L29.4261607,20.7944677 Z M7.06065099,20.7944677 L12.6928798,20.7944677 L12.6928798,24.9170569 L7.06065099,24.9170569 L7.06065099,20.7944677 Z M15.4681653,20.7944677 L21.1003941,20.7944677 L21.1003941,24.9170569 L15.4681653,24.9170569 L15.4681653,20.7944677 Z M37.8343042,33.3213373 L37.8343042,8.35044143 L26.6509201,8.35044143 L26.6509201,0.026423913 L1.42779302,0.026423913 L1.42779302,33.2398287 L0.0401502855,33.2398287 L0.0401502855,35.9873613 L39.2219919,35.9873613 L39.2219919,33.2398287 L37.8343042,33.2398287 L37.8343042,33.3213373 Z M4.20307857,33.3213373 L4.20307857,2.77391209 L23.794651,2.77391209 L23.794651,33.2398287 L4.20307857,33.2398287 L4.20307857,33.3213373 Z M26.6509201,33.3213373 L26.6509201,11.0979741 L35.0591085,11.0979741 L35.0591085,33.2398287 L26.6509201,33.2398287 L26.6509201,33.3213373 Z" id="Shape"></path>
        </g>
    </g>
</svg>