<?xml version="1.0" encoding="UTF-8"?>
<svg width="128px" height="128px" viewBox="0 0 128 128" version="1.1" xmlns="http://www.w3.org/2000/svg" xmlns:xlink="http://www.w3.org/1999/xlink">
    <!-- Generator: Sketch 52.4 (67378) - http://www.bohemiancoding.com/sketch -->
    <title>Group 4</title>
    <desc>Created with Sketch.</desc>
    <g id="Page-1" stroke="none" stroke-width="1" fill="none" fill-rule="evenodd">
        <g id="Group-4">
            <rect id="Rectangle-Copy-11" stroke="#28C6C0" fill="#FFFFFF" x="0.5" y="0.5" width="127" height="127"></rect>
            <g id="tupian-copy" transform="translate(49.000000, 50.000000)" fill="#28C6C0" fill-rule="nonzero">
                <path d="M27.1892986,0 L2.80788917,0 C1.27205236,0 0.024184933,1.24786743 0.024184933,2.78370424 L0.024184933,23.4215115 C0.024184933,24.9573483 1.27205236,26.2052157 2.80788917,26.2052157 L27.1892986,26.2052157 C28.7251354,26.2052157 29.9730029,24.9573483 29.9730029,23.4215115 L29.9730029,2.78370424 C30.0689927,1.24786743 28.7251354,7.61976124e-16 27.1892986,0 Z M28.1491966,13.8225314 C26.6133598,12.5746639 24.0216352,10.9428373 20.8539718,10.9428373 C17.9742777,10.9428373 15.0945837,13.1506027 12.3108795,15.3583682 C10.1991038,16.9901948 7.99133842,18.7180112 6.45550161,18.7180112 C4.34372598,18.7180112 2.42392997,17.1821744 1.84799115,16.5102458 L1.84799115,2.78370424 C1.84799115,2.30375523 2.23195035,1.82380622 2.80788917,1.82380622 L27.1892986,1.82380622 C27.6692476,1.82380622 28.1491966,2.20776542 28.1491966,2.78370424 L28.1491966,13.8225314 Z" id="Shape"></path>
                <path d="M9.33519563,5.56740847 C7.22342,5.56740847 5.59159338,7.29522488 5.5915934,9.3110107 C5.5915934,11.4227863 7.31940981,13.0546129 9.33519563,13.0546129 C11.4469713,13.0546129 13.0787979,11.3267965 13.0787979,9.3110107 C13.1747877,7.29522488 11.4469713,5.56740845 9.33519563,5.56740847 Z M9.43118544,11.2308067 C8.37529764,11.2308067 7.60737922,10.3668985 7.60737922,9.40700051 C7.60737922,8.35111271 8.47128743,7.58319429 9.43118544,7.58319429 C10.3910835,7.58319429 11.2549917,8.44710249 11.2549917,9.40700051 C11.2549917,10.3668985 10.3910835,11.2308067 9.43118544,11.2308067 Z" id="Shape"></path>
            </g>
            <polygon id="Path-2-Copy" fill="#28C6C0" points="0 20.8046875 0 -3.01980663e-14 22.359375 -3.01980663e-14"></polygon>
            <path d="M12.6122995,3.19757064 L7.72423764,7.38733798 L5.39658911,4.98210117 C5.08623598,4.67174804 4.54311799,4.67174804 4.23276485,4.98210117 C3.92241172,5.29245431 3.92241172,5.8355723 4.23276485,6.14592543 L7.10353137,9.09428023 C7.25870793,9.2494568 7.49147279,9.32704508 7.72423764,9.32704508 C7.87941421,9.32704508 8.11217906,9.2494568 8.26735563,9.17186852 L13.6985355,4.51657147 C14.0864769,4.12863005 14.0864769,3.58551206 13.7761238,3.27515892 C13.4657707,2.96480578 13.000241,2.8872175 12.6122995,3.19757064 Z" id="Path-Copy-2" fill="#FFFFFF"></path>
        </g>
    </g>
</svg>