<?xml version="1.0" encoding="UTF-8"?>
<svg width="128px" height="128px" viewBox="0 0 128 128" version="1.1" xmlns="http://www.w3.org/2000/svg" xmlns:xlink="http://www.w3.org/1999/xlink">
    <!-- Generator: Sketch 52.4 (67378) - http://www.bohemiancoding.com/sketch -->
    <title>Group 6</title>
    <desc>Created with Sketch.</desc>
    <g id="Page-1" stroke="none" stroke-width="1" fill="none" fill-rule="evenodd">
        <g id="Group-6">
            <rect id="Rectangle-Copy-12" stroke="#28C6C0" fill="#FFFFFF" x="0.5" y="0.5" width="127" height="127"></rect>
            <g id="Group-3-Copy" transform="translate(50.000000, 48.000000)">
                <path d="M15,30.8187135 C6.71572875,30.8187135 0,24.0008742 0,15.5906433 C0,7.18041235 6.71572875,0.362573099 15,0.362573099 C23.2842712,0.362573099 30,7.18041235 30,15.5906433 C30,24.0008742 23.2842712,30.8187135 15,30.8187135 Z M19.5485794,16.1345029 L13.821443,21.6609763 L13.821443,10.6080295 L19.5485794,16.1345029 Z M12.3214286,8.79387195 L12.3214286,23.4751339 C12.3214286,24.178575 13.0854213,24.5521229 13.5692365,24.0852835 L21.1763942,16.7445252 C21.5126305,16.4199776 21.5126305,15.848901 21.1763942,15.5244807 L13.5692365,8.1837224 C13.0854213,7.7168829 12.3214286,8.09043086 12.3214286,8.79387195 Z" id="Combined-Shape" fill="#28C6C0"></path>
                <g id="buchang-kong" transform="translate(16.428571, 16.476608) scale(-1, 1) translate(-16.428571, -16.476608) translate(11.428571, 7.976608)"></g>
            </g>
            <polygon id="Path-2-Copy-2" fill="#28C6C0" points="0 20.8046875 0 -3.01980663e-14 22.359375 -3.01980663e-14"></polygon>
            <path d="M12.6122995,3.19757064 L7.72423764,7.38733798 L5.39658911,4.98210117 C5.08623598,4.67174804 4.54311799,4.67174804 4.23276485,4.98210117 C3.92241172,5.29245431 3.92241172,5.8355723 4.23276485,6.14592543 L7.10353137,9.09428023 C7.25870793,9.2494568 7.49147279,9.32704508 7.72423764,9.32704508 C7.87941421,9.32704508 8.11217906,9.2494568 8.26735563,9.17186852 L13.6985355,4.51657147 C14.0864769,4.12863005 14.0864769,3.58551206 13.7761238,3.27515892 C13.4657707,2.96480578 13.000241,2.8872175 12.6122995,3.19757064 Z" id="Path-Copy-3" fill="#FFFFFF"></path>
        </g>
    </g>
</svg>